<svg width="145" height="207" viewBox="0 0 145 207" fill="none" xmlns="http://www.w3.org/2000/svg">
<g id="Carotte">
<g id="Calque 1">
<path id="Vector" d="M59.1281 124.222C58.7534 122.532 58.2507 121.689 57.8484 119.666C57.1461 116.681 55.964 113.83 54.3483 111.224L59.9977 111.105C61.9296 111.132 63.8597 110.97 65.7602 110.622C67.7903 110.148 69.7574 109.436 71.6207 108.501C73.9402 107.41 76.2245 106.228 78.4481 104.938C79.0272 104.614 81.2952 102.808 80.1162 102.059C79.5556 101.707 76.3977 103.536 75.8037 103.805C72.5082 105.33 69.3936 107.293 65.8915 108.364C63.8584 108.934 61.7837 109.342 59.6865 109.585L53.8229 110.426C49.0288 102.501 41.6169 94.425 39.168 89.8743C35.8166 83.4539 28.6359 63.5838 31.6605 56.1634C34.6851 48.743 47.9119 48.1868 47.9119 48.1868C47.9119 48.1868 54.7656 43.311 60.4603 44.1796C66.1551 45.0481 70.1055 47.8098 72.9516 60.4639C75.7976 73.1179 78.2292 86.4469 81.6253 95.1847C85.0214 103.923 84.6071 117.655 85.4163 124.626C86.2254 131.597 89.1058 151.054 89.3749 161.081C89.299 170.158 91.2701 179.135 95.1418 187.344C99.294 196.783 103.878 205.379 104.25 206.074C103.657 205.012 93.4387 188.518 90.8125 182.8C88.1863 177.082 81.504 162.267 78.2167 157.916C74.9295 153.565 67.121 140.899 64.2982 137.096C62.3574 134.445 60.9276 131.066 59.6943 125.773M77.436 148.872C80.2399 147.873 82.9432 146.61 85.5099 145.103C84.5384 143.62 80.2838 145.95 79.1108 146.543C78.6343 146.76 78.2033 147.065 77.8405 147.443C77.6562 147.634 77.5241 147.869 77.4568 148.125C77.3895 148.382 77.3893 148.651 77.4562 148.908L77.436 148.872ZM78.2062 137.362C79.6197 136.801 80.9648 136.081 82.2156 135.216C81.7689 134.247 79.9317 136.002 79.2132 136.388C78.3283 136.951 77.289 137.222 76.2419 137.162C75.7814 137.103 75.334 136.926 74.8841 136.829C74.4298 136.732 73.9628 136.71 73.5014 136.763C73.1323 136.811 72.6764 136.987 72.6143 137.386C72.6142 137.61 72.6624 137.831 72.7555 138.035C72.9655 138.835 72.4198 139.615 71.8603 140.229C71.2247 140.752 70.7685 141.461 70.5552 142.256C73.3874 141.148 75.5709 138.851 78.2466 137.434L78.2062 137.362ZM73.8118 120.635C72.7197 121.08 71.6865 121.657 70.7355 122.355C69.6555 122.911 68.5386 123.392 67.3928 123.796C65.0725 124.346 62.8014 125.087 60.6023 126.009C60.3039 126.382 60.8006 126.959 61.269 126.918C61.7299 126.82 62.1505 126.585 62.4754 126.244C63.8734 125.234 65.4645 124.522 67.1494 124.154L72.5884 122.554C73.1624 122.391 75.3279 121.988 75.3556 121.244C75.3833 120.501 74.2411 120.553 73.8118 120.635ZM67.5438 132.733C68.9508 132.521 70.3211 132.112 71.6146 131.518L80.5144 127.952C81.1667 127.759 81.746 127.374 82.1775 126.848C82.9705 125.661 82.7271 125.481 81.4022 125.461C80.0774 125.442 78.4778 126.716 77.4684 127.233M80.7934 108.312C79.2371 109.182 78.0073 110.692 76.5185 111.683C72.6659 114.28 67.7616 114.995 64.0704 117.739C69.4019 115.012 75.592 114.274 80.8966 111.499C81.7003 111.156 82.367 110.555 82.7917 109.791C83.5173 107.945 81.9636 107.658 80.7934 108.312ZM65.6359 47.8866C61.3921 49.371 57.2267 51.0708 53.1559 52.9794C50.8757 54.0802 48.4806 54.9254 46.0146 55.4994C42.5682 56.3021 38.8643 56.6157 35.9026 58.5404C40.4794 57.8338 45.0995 57.2614 49.7199 56.8312C51.9673 56.4558 54.1753 55.8733 56.3155 55.091C57.9693 54.5939 69.5527 46.8209 65.6359 47.8866ZM67.4591 56.19C65.7161 56.8428 64.1146 57.824 62.7415 59.0804C63.3007 59.401 63.9209 58.896 64.4772 58.6166C65.0336 58.3373 65.4778 58.3106 65.9001 58.0745C66.6777 57.7598 67.3116 57.1686 67.6798 56.4149L67.4591 56.19ZM69.2192 65.0036C65.7719 65.4151 62.4132 66.3788 59.2719 67.8575C54.6458 69.7787 49.4201 69.6926 44.6304 71.1513C43.8431 71.3856 42.7581 70.1245 42.134 70.6791C41.8313 70.9591 41.5911 71.5207 41.9541 71.7452C42.0586 71.8042 42.1782 71.8309 42.2979 71.8221C46.9422 72.2574 51.6167 72.2669 56.263 71.8503C60.9395 71.2938 65.9548 70.4371 69.3401 67.231C72.4941 64.3758 72.7688 64.6971 69.2554 64.9833L69.2192 65.0036ZM66.3366 85.3392C63.8918 86.4838 61.3567 87.4245 58.757 88.1517C58.8578 88.7285 59.6632 88.7531 60.2266 88.628C61.8751 88.2626 63.5023 87.8074 65.1011 87.2644C67.6065 86.4495 70.8658 85.4823 72.7254 83.5406C70.8297 82.8118 68.1345 84.4767 66.3969 85.3055L66.3366 85.3392ZM60.9527 98.9059C62.4967 98.9081 64.0399 98.8326 65.5763 98.6797C68.2105 98.3785 76.0391 95.3318 76.4011 91.9006C73.1053 91.6695 69.1292 93.7338 67.232 94.5886C65.8807 94.964 64.5603 95.4428 63.2825 96.0208C61.0432 97.51 57.6512 97.4751 55.4308 98.9696L60.9527 98.9059ZM47.5142 95.2594C49.0932 94.8278 50.7306 94.6498 52.3653 94.7319C51.9347 94.2758 51.3707 93.9676 50.7541 93.8517C50.1375 93.7358 49.4999 93.818 48.9328 94.0866L48.6209 94.435L45.9647 95.6032L47.5142 95.2594ZM42.4612 84.1239C50.5587 85.0153 58.7339 83.3661 65.8535 79.4048C67.6875 78.5943 69.3723 77.4813 70.8373 76.1124C72.7629 73.7222 69.1657 75.9546 68.1322 76.4849C64.1945 78.5274 60.0307 80.1006 55.7263 81.1722C50.9041 82.3916 45.9428 82.9726 40.9696 82.9001C40.723 83.592 41.6973 84.0603 42.4612 84.1239ZM37.3402 67.2018C37.735 67.3039 38.1508 67.2911 38.5387 67.165C41.6343 66.4615 44.6902 65.5933 47.6933 64.5642C49.6796 63.897 54.157 63.1827 55.4844 61.5069C50.5594 62.1818 45.6806 63.1594 40.8756 64.4341C39.5795 64.6443 38.3373 65.1074 37.2199 65.7971C37.0359 65.8976 36.8908 66.0567 36.8076 66.2491C36.751 66.4447 36.7724 66.6545 36.8671 66.8347C36.9619 67.0148 37.1228 67.1512 37.316 67.2153L37.3402 67.2018Z" fill="#EC6726"/>
<path id="Vector_2" d="M51.3472 46.2032C51.3472 46.2032 51.8779 37.6919 46.9168 24.6532C41.9557 11.6145 41.1414 9.64799 41.1414 9.64799L37.9343 10.0005C37.9343 10.0005 45.5094 33.0689 45.6509 36.0129C45.7924 38.9569 39.6008 29.2968 36.534 18.5705C34.6749 12.044 32.428 5.56025 32.428 5.56025L29.0984 7.42149C29.0984 7.42149 32.2198 16.3762 35.6209 26.5675C38.3336 34.706 38.071 37.0687 38.071 37.0687C38.071 37.0687 33.7171 33.4721 29.9675 15.2927L26.0237 16.3102C26.0237 16.3102 29.7972 32.7194 33.6759 38.4967C37.5546 44.2741 40.8099 49.8143 44.8959 52.0253C48.9819 54.2364 51.3472 46.2032 51.3472 46.2032Z" fill="#2A8D43"/>
</g>
</g>
</svg>
