<svg width="73" height="78" viewBox="0 0 73 78" fill="none" xmlns="http://www.w3.org/2000/svg">
  <g id="Choux">
    <g id="Calque 1">
      <path id="Vector"
        d="M67.0851 19.7392C67.4325 20.5436 67.733 21.3675 67.985 22.2067C68.5134 20.7232 68.7488 19.1512 68.678 17.5779L67.0851 19.7392ZM3.5398 39.1278C5.45553 41.649 7.76505 43.8445 10.3794 45.6297C10.2264 45.4316 14.1412 34.5891 14.1412 34.5891C14.1412 34.5891 13.2142 24.6021 13.1422 22.684C13.2062 20.8205 13.8257 19.0187 14.921 17.5102C16.0163 16.0017 17.5374 14.8555 19.2889 14.2189C25.9035 11.6524 30.3492 12.8051 34.588 14.4621C38.8267 16.1191 44.1904 18.0642 45.5943 22.765C46.9982 27.4658 46.8812 26.8805 48.7891 30.5907C50.697 34.3009 52.3889 36.9485 52.3889 36.9485C53.778 35.7549 55.0775 34.4607 56.2767 33.0762C55.7997 32.5899 54.8998 31.7524 54.2338 30.9239C53.2259 29.7532 49.9681 28.7986 49.8511 28.1412C49.7341 27.4839 51.435 27.691 53.6219 29.0418C54.9028 29.8691 56.0836 30.8421 57.1406 31.9415C57.8053 31.1152 58.3618 30.2073 58.7966 29.2399C57.9686 28.5105 55.5477 26.3942 54.2338 25.4396C52.6589 24.2959 49.4101 23.5485 49.7341 23.0712C50.0581 22.5939 51.462 23.0712 53.9818 24.0618C55.8582 24.9335 57.6105 26.0509 59.1925 27.3848C59.2406 26.5907 59.2044 25.7938 59.0845 25.0074C57.5861 24.0229 56.0226 23.1413 54.4048 22.3688C51.84 21.1711 48.2942 20.6758 47.9432 20.1715C47.5922 19.6672 49.6081 19.8563 52.9829 20.8829C54.9843 21.5119 56.9194 22.3354 58.7606 23.3414C58.4725 22.1762 58.0559 21.0466 57.5186 19.9734C55.5117 19.0008 49.9951 16.3712 47.4482 16.074C44.2804 15.6688 42.3365 15.5607 42.9485 15.3536C45.1819 14.7785 47.5264 14.7941 49.7521 15.3986C52.0434 16.0055 54.2547 16.8821 56.3397 18.0102C56.1373 17.7469 55.9081 17.5055 55.6557 17.2898C54.469 16.2245 53.1503 15.3165 51.732 14.5881C50.9568 14.1364 50.1543 13.7333 49.3291 13.3814C47.3055 12.5031 45.0813 12.1919 42.8945 12.4809C41.2412 12.6881 39.573 12.7514 37.9088 12.67C38.4127 12.5799 41.7336 11.5983 41.7336 11.5983C41.7336 11.5983 39.1507 11.4453 37.3508 11.3642C35.5509 11.2832 37.6658 10.7068 38.5837 10.6618C45.6033 10.3196 48.5462 11.9496 50.769 12.9492C51.6405 13.3154 52.4555 13.8036 53.1899 14.399C54.3303 14.2558 55.4884 14.3918 56.5647 14.7953C57.6833 15.5893 58.6807 16.5418 59.5255 17.623C59.5255 17.623 64.0252 15.4977 66.0141 17.8661C66.2437 18.1481 66.4484 18.4494 66.6261 18.7666C67.3392 17.5799 67.8872 16.3013 68.255 14.9664L65.5551 16.5063C65.6631 16.2992 67.418 13.0572 67.355 12.3098C67.355 12.3098 65.5551 15.0114 64.6552 15.4166C64.6552 15.4166 65.6091 12.625 65.4652 11.5623C64.6991 12.288 63.728 12.7597 62.6843 12.9131C63.2023 12.2107 63.6034 11.4292 63.8722 10.5987C62.744 11.5392 61.4275 12.227 60.0115 12.616C60.0115 12.616 61.3344 10.977 61.2804 10.0764C61.2804 10.0764 58.3286 11.6164 56.7807 11.3732C56.7807 11.3732 59.2285 8.5095 59.4355 7.37482C59.4355 7.37482 55.4037 10.4276 54.4858 10.5447C53.5679 10.6618 55.5927 8.60856 56.9607 7.8431C57.9992 7.21731 58.9863 6.50965 59.9125 5.72683C57.8714 6.45588 55.8759 7.30692 53.9368 8.27536C54.5344 7.2709 55.3089 6.38304 56.2227 5.65479C54.3999 6.06027 52.6592 6.77284 51.075 7.76205C51.075 7.76205 51.435 6.3392 50.58 6.49229C50.2119 6.57152 49.8304 6.56308 49.4662 6.46766C49.1019 6.37224 48.7652 6.19251 48.4832 5.94296C48.0422 5.5017 47.7542 3.93476 45.7113 4.20492C43.6684 4.47508 41.5626 4.6732 36.7748 8.39243C36.7748 8.39243 39.6187 3.42145 43.8574 2.63798C48.0962 1.85451 49.1041 3.88073 49.1041 3.88073C49.1041 3.88073 54.0808 1.67441 57.7616 2.87212C61.4424 4.06984 65.5102 6.06003 68.318 11.6074C70.7208 16.3712 69.1189 22.8191 68.624 24.5301C68.993 26.016 69.1909 27.1326 69.1909 27.1326C69.1909 27.1326 72.2418 20.4506 70.1989 13.7867C68.156 7.12267 64.0522 2.60196 59.1385 0.84591C56.1246 -0.184151 52.8297 -0.00993909 49.9411 1.3322C49.9411 1.3322 49.0411 -0.576942 43.8124 0.84591C41.558 1.38694 39.4965 2.53991 37.8548 4.1779L37.7738 4.26796L37.5938 4.47508C37.3931 4.70005 37.2153 4.94439 37.0628 5.20452H36.9818C35.9829 6.3392 34.336 8.1853 33.0671 9.57213C31.1322 11.7064 31.1412 11.076 31.6181 10.2565C31.9691 9.64418 34.498 6.23113 35.7309 4.57414C34.345 3.96178 29.2513 1.81849 25.6875 1.55734C23.3926 1.38623 21.2508 1.35021 17.849 4.34901C15.6524 5.00454 13.5386 5.91105 11.5493 7.05062C9.07448 8.57253 4.06177 11.8775 3.4858 18.1813C3.4858 18.1813 0.344989 20.964 0.0480063 24.395C-0.248976 27.8261 0.821961 35.3816 3.5398 39.1278ZM2.22588 24.6021C2.27987 20.9549 4.61074 20.6217 4.61074 20.6217L4.83572 17.9201C5.05171 15.2185 7.78755 11.3012 11.1354 8.91474C14.4832 6.52831 19.2799 5.78086 19.2799 5.78086C20.9535 4.40641 22.994 3.55461 25.1475 3.3314C28.6843 2.98019 33.985 5.91595 33.985 5.91595C33.985 5.91595 32.2661 8.48248 31.0602 9.0228C29.8542 9.56313 29.5303 9.20291 28.6033 7.59995C27.6764 5.99699 26.4255 6.27616 26.7044 7.22173C26.9834 8.16729 26.7044 9.98638 26.0565 8.54552C25.4427 7.49697 24.5997 6.60106 23.5906 5.92495C23.5906 5.92495 24.8775 8.92375 24.0586 8.44646C23.2624 7.80608 22.5596 7.05738 21.9707 6.22213C21.9707 6.22213 23.0867 9.67119 22.1507 9.42805C21.8448 9.30949 21.569 9.12437 21.3433 8.88608C21.1176 8.64779 20.9477 8.36229 20.8458 8.05022C20.7288 9.11286 19.1269 10.8779 19.1269 10.8779C18.1002 10.344 17.1498 9.67463 16.3011 8.88772C16.3011 9.56313 17.912 11.5443 18.011 11.6524C17.2693 11.5264 16.5117 11.5264 15.7701 11.6524C15.0321 11.8955 14.6811 14.7772 14.6811 14.7772C13.7812 14.2639 12.8183 12.0756 12.8183 12.0756C12.659 13.5709 12.6049 15.0755 12.6563 16.5783C11.4953 15.1825 10.8564 11.7424 10.8564 11.7424C9.88443 13.5435 11.7563 19.415 11.7563 19.415C11.1634 18.7705 10.6882 18.0267 10.3524 17.2177C9.83043 19.1989 10.4424 23.8907 9.62344 23.6836C8.80449 23.4765 7.96754 19.9824 7.96754 19.9824C7.63976 20.6675 7.57257 21.4486 7.77855 22.1797C8.13853 23.3144 10.6674 30.1675 8.95748 29.9693C7.24758 29.7712 6.02365 27.1056 6.02365 27.1056C6.02365 27.1056 5.87966 29.6992 6.73461 30.6357C7.58956 31.5723 8.10253 34.8683 8.10253 34.8683C7.05112 33.8141 6.12135 32.6451 5.3307 31.3832C6.06693 33.4789 6.93872 35.5245 7.94054 37.5069C8.66015 38.7407 9.12529 40.1064 9.30846 41.5233C9.30846 41.5233 8.48051 42.0996 6.50963 39.3349C4.53874 36.5703 2.18088 28.2673 2.22588 24.6021Z"
        fill="#2A8D43" />
      <path id="Vector_2"
        d="M66.4551 19.0818L66.8871 19.9824L67.085 19.7212C66.9424 19.3993 66.7801 19.0866 66.5991 18.7846L66.4551 19.0818Z"
        fill="#2A8D43" />
      <path id="Vector_3"
        d="M64.0882 17.8571C63.3413 17.5239 60.9204 17.9742 59.6875 19.1989C59.6875 19.1989 57.4376 16.4973 55.2598 15.5967C55.2598 15.5967 58.7336 18.8207 59.4895 20.6668C59.9578 21.8145 60.2344 23.0314 60.3085 24.2689C60.3085 24.2689 62.8823 22.9541 63.0083 21.4232C63.166 20.1823 63.531 18.9768 64.0882 17.8571Z"
        fill="#2A8D43" />
      <path id="Vector_4"
        d="M45.5493 26.115C45.5493 26.115 44.0824 21.6124 41.8956 19.6312C39.7087 17.65 35.8389 16.029 33.1211 15.1285C30.4032 14.2279 28.9363 13.0842 23.1137 14.6332C17.291 16.1821 15.3831 18.7937 15.2481 19.4421C15.1131 20.0904 14.6272 21.6394 15.7881 20.8559C16.949 20.0724 19.7119 17.1097 22.7087 16.3532C25.7055 15.5967 26.5425 14.318 32.3831 16.6774C38.2238 19.0368 40.8876 20.3786 42.7145 22.3418C44.5414 24.305 44.1004 26.4482 45.5493 26.115Z"
        fill="#2A8D43" />
      <path id="Vector_5"
        d="M67.1391 30.7888C67.1391 30.7888 68.642 28.3574 68.219 26.7094C67.796 25.0614 66.5991 20.5227 65.8161 19.9283C65.0332 19.334 64.1512 18.9828 63.9442 20.973C63.7373 22.9632 64.0162 23.8277 62.7113 24.2419C61.4064 24.6562 60.4614 26.043 60.4254 27.9972C60.3895 29.9513 58.8505 32.4999 56.6997 34.2019C54.5488 35.9039 54.9898 36.6874 54.1888 37.5069C53.3879 38.3264 51.579 38.4074 50.1751 40.1274C48.7711 41.8475 47.4752 45.4586 45.8733 47.3317C44.2714 49.2049 39.5107 54.1398 39.5107 54.1398C39.5107 54.1398 41.8775 55.0404 43.1645 55.5266C44.4514 56.0129 46.0803 54.9323 46.5843 52.717C47.0882 50.5016 47.8802 48.5655 50.337 48.5114C51.2863 48.4319 52.2406 48.4319 53.1899 48.5114C53.1899 48.5114 55.5837 42.0996 56.0517 40.2895C56.5197 38.4794 57.1586 41.055 56.1687 43.8917C55.1788 46.7284 54.4588 48.6916 54.4588 48.6916C54.4588 48.6916 57.1586 48.6375 57.9506 47.791C58.7425 46.9445 58.0046 43.4144 59.5705 41.3432C61.1364 39.2719 61.9734 38.5425 64.3402 37.741C66.7071 36.9395 65.2852 29.5281 64.9252 27.3038C64.5652 25.0794 65.1412 25.3046 65.8251 27.1417C66.5091 28.9788 67.1391 30.7888 67.1391 30.7888Z"
        fill="#2A8D43" />
      <path id="Vector_6"
        d="M34.93 57.3007C37.1078 58.8046 43.4525 61.119 50.346 59.0387C57.2396 56.9585 66.7521 51.9155 70.1989 47.764C73.6457 43.6125 73.5737 37.2007 71.8008 33.2293C71.8008 33.2293 69.7219 29.9964 68.84 30.2125C67.958 30.4286 67.1481 32.1937 67.0401 34.1028C66.9321 36.012 67.508 37.759 65.9601 38.3894C64.4122 39.0198 61.3974 40.3796 60.7854 41.4152C60.1735 42.4508 60.2545 45.2425 59.5345 46.8184C58.8146 48.3944 59.1565 49.6461 56.0607 49.6551C52.9649 49.6641 49.2661 49.1959 48.6002 50.6007C47.9342 52.0055 47.9522 55.7788 45.9903 56.6613C44.0284 57.5438 39.6907 55.5987 37.1618 55.4276C34.633 55.2565 32.7611 55.7878 34.93 57.3007ZM50.463 54.7072C53.1629 52.4288 56.3667 51.6093 58.9225 50.6727C61.4784 49.7362 61.9644 47.1246 62.9093 45.2695C63.2076 44.5129 63.7197 43.8597 64.3829 43.3895C65.0462 42.9193 65.8319 42.6526 66.6441 42.6219C68.444 42.4058 69.038 41.9465 69.5149 40.7668C69.9919 39.5871 68.84 35.3636 69.8299 35.3185C71.5398 35.3185 71.4048 42.5949 69.3439 46.1971C67.2831 49.7992 58.5446 54.5721 54.6028 56.103C50.661 57.6339 47.4842 58.7416 46.9173 58.4444C46.3503 58.1472 47.7902 56.9855 50.463 54.7072Z"
        fill="#2A8D43" />
      <path id="Vector_7"
        d="M21.2508 64.5681C21.7932 66.6103 22.6396 68.5593 23.7616 70.3495C25.4085 72.745 25.5615 74.0417 32.2301 73.9517C32.2301 73.9517 33.643 75.6987 37.7648 76.5993C42.406 77.4639 47.1752 77.3659 51.777 76.3111C56.2767 75.2755 59.7415 71.3041 61.2444 68.5575C62.7473 65.8108 63.1883 60.9569 65.4562 59.0478C67.724 57.1386 69.4699 56.3461 68.714 51.024C65.422 53.7226 61.7495 55.9196 57.8156 57.5439C52.0829 59.6961 41.4726 63.1542 33.652 63.3523C25.8315 63.5505 23.0597 63.8296 21.2508 64.5681ZM24.7336 65.1084C24.9405 66.3962 25.9305 66.4772 25.9215 65.8828C25.9125 65.2885 25.1655 64.7302 26.5784 64.8652C27.9914 65.0003 28.6933 66.3601 29.5573 67.2967C30.4212 68.2333 31.8341 68.3593 31.6901 67.2967C31.5462 66.2341 33.0041 66.9095 34.183 67.2967C35.3619 67.6839 34.633 68.4044 34.885 68.9537C35.1369 69.503 35.8929 69.0708 36.4059 69.2238C36.9188 69.3769 37.4678 71.6553 37.5488 70.7998C37.6298 69.9443 36.9278 68.4764 37.4138 67.891C37.8998 67.3057 38.1158 67.6659 38.6377 68.6115C39.1597 69.557 38.9707 69.3409 39.4567 69.2959C39.9427 69.2509 39.5557 68.4854 40.1586 68.7736C40.7616 69.0618 40.8066 70.6377 41.2206 71.5472C41.6346 72.4568 41.2656 69.6561 41.2206 68.2333C41.1756 66.8104 41.7786 67.1796 42.3185 69.0708C42.8585 70.9619 43.5425 70.5747 43.1555 68.7646C42.7685 66.9545 43.4255 66.7294 43.8664 66.6933C44.3074 66.6573 44.0644 68.5484 44.4874 67.9181C44.9104 67.2877 44.5504 66.6663 45.1264 66.2611C45.7023 65.8558 46.0263 66.6483 46.5213 67.891C47.0162 69.1338 47.5832 69.6291 47.8892 68.3323C48.1952 67.0355 47.3132 66.0089 47.6552 65.1984C47.9972 64.388 49.0051 65.2435 49.7521 66.5943C50.499 67.9451 50.652 68.5214 50.409 66.6753C50.1661 64.8292 50.742 64.424 51.309 64.8742C51.876 65.3245 51.462 66.5402 52.047 67.5218C52.6319 68.5034 52.047 65.8288 51.912 64.415C51.777 63.0011 52.8119 61.5152 53.7119 65.4596C54.6118 69.404 54.9448 68.0802 54.4138 64.7031C53.8828 61.3261 54.2968 60.8578 54.8638 60.9479C55.4308 61.0379 55.3048 62.803 55.7637 62.875C56.2227 62.9471 55.5297 60.8308 56.0697 60.2815C56.6097 59.7322 56.8527 60.4796 57.3116 62.9291C57.7706 65.3785 58.1396 65.0093 58.2116 63.4064C58.2836 61.8034 57.7976 60.0113 58.0316 59.6691C58.2656 59.3269 58.8686 60.7047 59.2105 60.3986C59.5525 60.0924 59.4805 58.9037 59.8765 58.9307C60.2725 58.9577 60.4345 60.3175 60.8844 60.0744C61.3344 59.8312 61.6584 58.6425 62.2704 57.9401C62.8823 57.2377 64.3312 55.1214 64.8712 54.8242C65.4112 54.5271 65.7711 55.5447 65.8791 56.2201C65.8791 56.2201 64.0073 57.9131 60.0565 64.7031C56.1057 71.4932 53.1539 73.3303 49.1131 74.0147C45.0724 74.6991 38.7007 75.4196 35.8389 73.3213C32.9771 71.223 31.3392 72.9251 29.1793 72.1776C27.0194 71.4302 24.5536 67.5759 23.4016 66.162C22.2497 64.7482 24.5356 63.8296 24.7336 65.1084Z"
        fill="#2A8D43" />
      <path id="Vector_8"
        d="M17.516 42.784C18.02 40.3165 20.2608 36.3272 20.5848 35.7598C19.9818 36.9305 18.8569 41.6403 18.4339 43.4864L20.2788 44.9183C20.2788 44.9183 22.6637 34.2829 26.2455 30.5907C29.8273 26.8985 30.6012 24.8723 38.2868 21.7024C38.2868 21.7024 32.2391 17.3078 28.1264 17.1997C24.0136 17.0916 19.3609 18.2984 17.435 20.973C15.5091 23.6476 14.6362 25.7098 14.6092 28.7446C14.6092 30.6718 15.1491 35.3366 15.5631 38.4794C16.3774 36.351 17.3304 34.2783 18.4159 32.2747C17.57 34.0758 16.4631 39.0738 15.9591 41.4152C15.9591 41.5053 15.9591 41.5593 15.9591 41.5593L17.516 42.784ZM21.8177 20.7929C18.4159 23.1793 16.0581 27.7 16.0581 27.7C16.1421 26.1727 16.6536 24.6998 17.534 23.4494C18.6627 22.1533 20.1555 21.2276 21.8177 20.7929ZM32.0231 21.2251C29.6477 19.927 26.924 19.4103 24.2386 19.7482C24.8387 19.3311 25.5204 19.0464 26.2388 18.9129C26.9571 18.7794 27.6956 18.8001 28.4053 18.9738C29.8392 19.2731 31.1208 20.0707 32.0231 21.2251ZM29.1703 22.5129C27.8024 22.0806 23.1137 23.0892 23.1137 23.0892C23.8683 22.4654 24.7811 22.0633 25.7505 21.9275C26.9213 21.8363 28.0964 22.0374 29.1703 22.5129ZM21.1608 28.2223C23.1407 24.7732 27.9284 24.7102 28.1624 24.7372C25.5705 24.9263 21.1608 28.2223 21.1608 28.2223ZM17.102 29.402C17.192 27.718 18.9019 26.5473 19.8019 26.007C18.8144 27.0661 17.9117 28.2013 17.102 29.402Z"
        fill="#2A8D43" />
      <path id="Vector_9"
        d="M19.8018 26.007C20.1708 25.7818 20.3958 25.6738 20.3508 25.6648C20.3058 25.6558 20.0178 25.7908 19.8018 26.007Z"
        fill="#2A8D43" />
      <path id="Vector_10" d="M18.4249 32.3017C18.4728 32.1862 18.5299 32.0748 18.5959 31.9685L18.4249 32.3017Z"
        fill="#2A8D43" />
      <path id="Vector_11"
        d="M22.3937 47.2327C22.5535 45.8819 22.8924 44.5585 23.4016 43.2973C23.4321 45.1376 23.5673 46.9747 23.8066 48.7996C23.8066 48.7996 26.6324 51.7714 26.5694 51.4382C26.5064 51.105 23.8696 40.8208 27.2084 35.7688C29.7382 32.271 32.7708 29.1666 36.2079 26.5563C35.7669 26.9796 28.6753 33.9317 27.3614 38.2633C26.1645 42.1897 27.2084 48.7456 28.2613 52.0866L28.8013 52.5279C28.8013 52.5279 27.1814 42.9731 28.5673 39.398C29.9532 35.8229 30.4482 33.4815 35.3349 29.8073C35.0739 30.0864 30.7812 34.6612 29.8812 39.7942C29.2747 44.2548 29.308 48.7792 29.9802 53.2303C30.202 53.5672 30.5374 53.8133 30.9252 53.9237C30.9252 53.9237 30.5922 48.3403 31.6271 44.8282C32.6621 41.3161 33.256 40.6227 33.256 40.6227C32.5699 43.3833 32.053 46.1831 31.7081 49.0067C31.5191 51.7714 31.7081 54.8242 32.2391 55.1935C32.7701 55.5627 33.364 51.3752 33.913 49.0067C34.462 46.6383 36.6128 37.669 37.7558 35.0124C38.4628 33.3975 39.2683 31.8276 40.1676 30.3116C40.1676 30.3116 38.1788 35.9219 37.7108 38.1102C37.2428 40.2985 36.3969 45.7468 35.7129 48.3764C35.0289 51.0059 34.426 54.437 34.426 54.437L37.3688 53.8336C37.3688 53.8336 40.3926 48.3223 40.9686 43.6215C41.5446 38.9207 40.4016 31.5003 40.4016 31.5003C40.4016 31.5003 43.3355 37.2367 42.4355 42.4778C41.7462 46.0421 40.6969 49.527 39.3037 52.8791C39.5647 52.6269 44.6314 47.6559 46.9442 42.9731C49.2571 38.2903 51.192 37.75 51.192 37.75C49.847 35.0146 48.3446 32.3595 46.6923 29.7983C44.8924 27.2857 39.4927 22.9902 39.4927 22.9902C39.4927 22.9902 32.7881 25.0074 29.4853 29.1589C27.0022 32.0503 24.9362 35.2755 23.3476 38.7406C22.2773 40.96 21.3923 43.2642 20.7018 45.6297L22.3937 47.2327ZM45.4683 38.2273C45.9093 35.8769 45.0903 31.1401 45.0903 31.1401C46.4278 33.37 46.9167 36.0079 46.4673 38.5695C45.8882 41.623 44.5893 44.4942 42.6785 46.9445C43.7579 44.0888 44.689 41.1792 45.4683 38.2273ZM37.4678 30.3116C36.3879 31.5453 34.768 36.084 34.768 36.084C34.462 33.3644 36.7298 31.005 37.4678 30.3116Z"
        fill="#2A8D43" />
      <path id="Vector_12" d="M37.4858 30.2935L37.6658 30.1314C37.5988 30.1771 37.5382 30.2316 37.4858 30.2935Z"
        fill="#2A8D43" />
      <path id="Vector_13"
        d="M14.3212 40.6137C14.3212 40.6137 13.7992 39.3439 13.4212 39.7132C13.0432 40.0824 12.0263 42.9911 11.7023 44.1528C11.3783 45.3145 11.2433 46.3952 11.9633 47.1336C12.6833 47.8721 13.1692 48.3043 13.1692 48.3043C13.1692 48.3043 12.5303 44.522 13.3402 43.5585C13.3402 43.5585 13.5832 48.6375 14.3662 50.0604L14.8971 50.7178C14.8971 50.7178 14.4921 47.8811 15.0231 46.6833C15.3758 48.7215 15.8843 50.7296 16.544 52.6899C17.444 55.1934 18.0469 56.8864 19.9638 57.751C22.3559 58.7538 24.9811 59.0658 27.5414 58.6515C29.59 58.414 31.6197 58.0349 33.616 57.5168C30.4638 55.6255 27.4558 53.5035 24.6166 51.168C21.5117 48.3674 17.228 45.0264 16.13 43.7836C15.3658 42.8277 14.7554 41.7582 14.3212 40.6137Z"
        fill="#2A8D43" />
      <path id="Vector_14"
        d="M6.05966 64.1088C9.27247 66.072 11.8643 65.5947 20.0628 63.5865C28.2614 61.5783 27.6134 61.7314 33.1391 62.0465C36.7135 62.1946 40.29 61.806 43.7494 60.8939C41.8703 60.8028 39.9998 60.5802 38.1518 60.2275C34.138 59.5521 33.841 59.2369 30.3672 59.3269C26.8934 59.417 24.1396 60.5517 21.0798 59.426C18.02 58.3003 17.255 56.9945 15.6171 54.0948C14.2556 51.6321 12.5427 49.3812 10.5324 47.4128C9.71344 46.6113 8.48051 45.5397 7.34658 44.5941C6.44663 45.9899 5.48369 47.3768 4.55675 48.7636C4.28805 49.0707 4.08545 49.4299 3.96159 49.8188C3.83772 50.2077 3.79524 50.6179 3.83679 51.024C4.03248 50.8022 4.27975 50.6321 4.55675 50.5287C4.69559 50.4798 4.84775 50.4851 4.98286 50.5435C5.11797 50.6019 5.22611 50.7092 5.2857 50.8438C5.3667 51.078 5.2857 51.4022 5.44769 51.5463C5.60968 51.6903 5.74468 51.6093 5.86167 51.6994C5.97866 51.7894 6.01466 52.0235 6.00566 52.1947C6.00566 52.6449 5.94266 53.0952 5.91567 53.5274L7.58057 52.2847C7.77856 52.1496 8.03954 51.9965 8.24653 52.1226C8.30813 52.1747 8.35773 52.2394 8.3919 52.3125C8.42608 52.3856 8.44403 52.4652 8.44452 52.5459C8.52366 53.1605 8.37302 53.7827 8.02154 54.2929C7.92255 54.437 7.79655 54.6351 7.88655 54.7882C7.97654 54.9413 8.21053 54.9233 8.39052 54.8873L10.0914 54.509C10.3074 55.4096 9.64145 56.193 9.02948 56.8234L6.77062 59.1648C7.90949 58.6091 8.93256 57.8421 9.78544 56.9045C10.2139 56.4351 10.7351 56.06 11.3161 55.8026C11.897 55.5453 12.525 55.4115 13.1602 55.4096C13.1727 55.7161 13.1151 56.0214 12.9919 56.3023C12.8687 56.5832 12.6832 56.8322 12.4493 57.0305C11.9798 57.4194 11.4769 57.766 10.9464 58.0662C10.1273 58.6068 9.4061 59.2828 8.81349 60.0654C10.3914 58.9967 11.9903 57.9611 13.6102 56.9585C13.8532 57.3818 13.6102 57.859 13.2952 58.3003C12.6916 59.1294 12.0268 59.912 11.3063 60.6417C12.649 59.7584 14.0605 58.9844 15.5271 58.3273C15.6292 58.264 15.7502 58.2385 15.8691 58.2553C16.1121 58.3093 16.1571 58.6515 16.0311 58.8676C15.8723 59.0578 15.6875 59.2246 15.4821 59.3629C15.3784 59.4318 15.2984 59.531 15.2533 59.6471C15.2082 59.7632 15.2001 59.8904 15.2301 60.0113L17.219 59.3449L16.976 60.5607C17.4068 60.381 17.8197 60.1609 18.2089 59.9033C18.8299 59.498 18.9289 60.3535 19.5859 60.9299C20.1519 61.3208 20.8089 61.5595 21.4937 61.6233C21.4937 61.6233 12.2333 63.1092 8.50751 62.1636C4.78173 61.2181 4.35876 58.7056 2.91884 55.6707C2.3144 54.2721 2.05138 52.7495 2.15153 51.229C2.25169 49.7085 2.71214 48.2337 3.49481 46.9265C4.50275 45.5847 5.48369 44.0358 5.87067 43.3964C5.15071 42.802 4.64674 42.4058 4.64674 42.4058C2.30792 44.3749 0.771149 47.1333 0.326995 50.1594C-0.320967 55.1034 2.84685 62.1636 6.05966 64.1088Z"
        fill="#2A8D43" />
    </g>
  </g>
</svg>