<svg width="807" height="127" viewBox="0 0 807 127" fill="none" xmlns="http://www.w3.org/2000/svg">
<path d="M68.8934 48.5074C68.9527 50.3034 68.7199 52.097 68.2045 53.816C68.2045 54.1952 67.372 55.9162 65.9941 58.9789C65.6206 60.2259 65.1602 61.4444 64.6163 62.625C61.1319 66.9496 56.7544 70.4428 51.7938 72.8573C46.8332 75.2717 41.4108 76.5483 35.9107 76.5967C35.346 76.5695 34.7868 76.4716 34.2458 76.305C33.7109 76.1597 33.1625 76.0717 32.6095 76.0425C27.1938 76.0425 23.8926 76.5092 22.7061 77.4426C24.4284 96.5188 25.2992 108.021 25.3183 111.949C25.3211 115.041 25.0424 118.127 24.4859 121.166C22.9477 122.505 21.4816 123.926 20.0939 125.425C19.3109 125.038 18.5701 124.569 17.8836 124.025C17.1372 124.025 15.6445 124.025 13.3481 124.025C12.345 124.212 11.3766 124.556 10.4775 125.046C9.57726 125.539 8.60981 125.892 7.60698 126.096C6.76495 126.096 5.61673 125.308 4.16231 123.733C2.12422 121.487 1.29176 115.683 1.29176 106.232C1.29176 105.299 1.29176 103.957 1.29176 102.236C1.29176 100.515 1.29176 99.319 1.29176 98.5315C1.1578 76.9078 0.8229 60.9332 0.287062 50.6075C0.150861 48.1398 0.150861 45.6663 0.287062 43.1987C0.488001 39.3776 0.574118 36.8399 0.574118 35.644C0.543803 34.8653 0.42827 34.0924 0.229651 33.3397C0.0717576 32.5822 -0.0052362 31.8096 6.58299e-06 31.0354C0.0639535 29.6221 0.246417 28.2169 0.545412 26.8351C0.876675 25.3724 1.02139 23.8725 0.975996 22.3723L0.287062 11.6674C0.959354 9.44515 1.925 7.32572 3.15762 5.36703C4.99087 5.27914 6.8145 5.04507 8.61168 4.66698C10.4317 4.32642 12.2737 4.12169 14.1231 4.05444C23.2898 4.05444 33.1454 4.56975 43.6899 5.60038C51.67 6.33932 59.0952 12.9509 65.9654 25.435C67.9174 28.7797 68.8934 36.4705 68.8934 48.5074ZM9.61637 13.1259C9.61637 12.3092 8.98485 11.8716 7.6931 11.8716C7.64748 12.1027 7.64748 12.3406 7.6931 12.5717C7.65561 12.9011 7.65561 13.2339 7.6931 13.5634C7.90143 14.1476 7.90143 14.7876 7.6931 15.3719C8.98485 14.7301 9.61637 13.9718 9.61637 13.1259ZM20.7828 63.4417C18.7447 61.3999 17.7401 59.8831 17.7401 58.833C17.7754 58.2794 17.7754 57.7241 17.7401 57.1704V56.0329H15.6732C15.7072 58.3415 15.9863 60.6397 16.5057 62.8875C16.2187 63.5583 15.8168 64.4334 15.2714 65.5418C15.4724 65.7166 15.637 65.9305 15.7553 66.171C15.8736 66.4115 15.9433 66.6736 15.9603 66.9419C15.5678 67.2557 15.2367 67.6416 14.9843 68.0795C15.1907 68.1789 15.365 68.3359 15.487 68.5322C15.6089 68.7284 15.6735 68.9558 15.6732 69.1879C15.576 69.6269 15.3327 70.0184 14.9843 70.2963C15.3649 70.8288 15.5571 71.4764 15.5297 72.1339C15.1665 76.6501 14.4854 81.1341 13.4916 85.5515C13.6529 86.1903 13.7397 86.8463 13.75 87.5058C13.715 88.099 13.5269 88.6724 13.2046 89.1684C12.9451 89.5469 12.7599 89.9728 12.6592 90.4226C13.3232 91.7759 13.6951 93.2576 13.75 94.7687H12.3721C12.8598 94.87 13.3262 95.0576 13.75 95.3229C14.4963 95.7021 14.9843 95.7896 15.2714 95.6146C15.1406 97.3069 15.3256 99.0091 15.8168 100.632C16.2081 100.461 16.626 100.363 17.0511 100.34C17.5697 100.36 18.0825 100.458 18.5725 100.632C18.5128 98.8435 18.282 97.0656 17.8836 95.3229C17.8983 95.4183 17.8906 95.5158 17.8612 95.6076C17.8318 95.6993 17.7815 95.7827 17.7143 95.851C17.6471 95.9192 17.5651 95.9704 17.4748 96.0003C17.3845 96.0301 17.2885 96.0379 17.1946 96.023C16.3622 96.023 15.6732 95.4688 15.1278 94.3312C15.6198 94.1532 16.1572 94.1532 16.6492 94.3312C16.9238 94.3894 17.2072 94.3894 17.4817 94.3312C17.7075 94.3918 17.9449 94.3918 18.1706 94.3312C18.2506 93.1269 18.2506 91.9186 18.1706 90.7143C18.7276 90.1958 19.1094 89.5119 19.2614 88.76C19.3042 88.5778 19.3042 88.388 19.2614 88.2058C18.9248 87.8588 18.6658 87.4419 18.5023 86.9838C18.3388 86.5257 18.2746 86.0371 18.3142 85.5515C17.9189 80.675 18.5249 75.7682 20.0939 71.1422C20.0939 70.9672 19.9025 69.9463 19.5198 68.0795C19.3359 66.4258 19.7885 64.764 20.7828 63.4417ZM19.6633 109.149C18.5725 108.799 18.0271 107.827 18.0271 106.232C17.6263 106.552 17.1633 106.783 16.6686 106.909C16.1739 107.034 15.6586 107.052 15.1565 106.961V105.561C16.2474 105.269 16.8502 104.89 16.9363 104.424L17.2234 103.869H15.2714V108.478L14.9843 109.032C14.8171 109.387 14.7289 109.776 14.726 110.17V115.333H16.1038C16.0699 113.615 16.3422 111.905 16.9076 110.286C17.2808 111.687 17.8836 113.612 18.716 116.12C18.8936 115.432 18.8936 114.708 18.716 114.02C18.5513 113.332 18.4551 112.628 18.429 111.92C18.4404 111.397 18.5556 110.882 18.7677 110.406C18.9799 109.93 19.2845 109.502 19.6633 109.149ZM19.1179 26.2517H16.7928V29.3144C16.1725 29.3346 15.5807 29.5834 15.1278 30.0145C16.0627 30.4087 16.9413 30.9286 17.7401 31.5604C17.1085 31.8521 16.7928 32.173 16.7928 32.523C17.2518 33.2939 17.664 34.0927 18.0271 34.9148C18.0022 34.7636 18.0131 34.6084 18.0591 34.4624C18.1051 34.3163 18.1848 34.1835 18.2915 34.0751C18.3983 33.9666 18.5289 33.8857 18.6727 33.8389C18.8164 33.7922 18.9691 33.781 19.1179 33.8064V26.2517ZM25.1748 15.3719V12.455C24.9739 12.455 24.6868 12.1925 24.2849 11.6383C24.1458 11.3992 23.9542 11.1958 23.7252 11.0441C23.4962 10.8923 23.2359 10.7962 22.9645 10.7632C22.8761 10.7641 22.7902 10.7925 22.7183 10.8447C22.6464 10.8969 22.592 10.9703 22.5626 11.0549C22.5626 11.2299 22.1894 11.3174 21.7301 11.3174C21.1189 11.2492 20.5453 10.9834 20.0939 10.559C19.6849 10.151 19.165 9.87667 18.6012 9.77148C17.8669 9.86718 17.1875 10.2175 16.6779 10.7632C16.3758 10.9667 16.1196 11.2332 15.9266 11.545C15.7336 11.8568 15.6081 12.2068 15.5584 12.5717C15.6679 13.7635 16.0514 14.9124 16.6779 15.9261H18.8596L20.0939 14.9635C20.9391 14.9816 21.7826 15.0498 22.62 15.1677C23.467 15.2858 24.32 15.354 25.1748 15.3719ZM19.1179 45.0071V36.0524C18.7148 36.0259 18.318 35.9374 17.941 35.7899C17.5789 35.6225 17.1898 35.5237 16.7928 35.4982C16.7928 34.6523 16.965 35.7899 17.3382 38.8526C17.2259 39.7589 16.8902 40.6217 16.3622 41.3611C16.91 42.4451 17.2046 43.6428 17.2234 44.8613C17.2707 45.4631 17.2707 46.0679 17.2234 46.6697C17.4913 46.6697 18.1228 46.1155 19.1179 45.0071ZM18.716 52.0076H16.7928L16.3622 54.9244C17.9123 53.3493 18.716 52.5035 18.716 52.0076ZM47.5938 41.3611C47.5498 39.0535 47.222 36.7605 46.6179 34.5356C46.3039 32.297 45.3564 30.1993 43.8908 28.4977C40.4004 25.6555 36.0487 24.13 31.5761 24.1808C30.9752 24.3345 30.416 24.6236 29.9399 25.0267L22.2181 25.2892C22.2181 32.1146 22.4478 41.9444 22.9071 54.7786C23.5673 54.9828 23.7395 55.4495 23.4525 56.1787C23.282 57.1332 22.9098 58.0388 22.3616 58.833C27.2129 58.2788 30.026 58.0163 30.7437 58.0163C31.5076 58.0622 32.2568 58.25 32.954 58.5705C33.5603 58.8627 34.2103 59.05 34.8773 59.1247C36.8762 59.1663 38.8472 58.6429 40.5705 57.6128C42.2939 56.5827 43.7017 55.0865 44.6372 53.291C46.6808 49.6651 47.7037 45.538 47.5938 41.3611ZM25.3183 69.1879C24.6405 68.1314 23.8512 67.1534 22.9645 66.271V68.1086C23.5099 67.9045 23.7969 68.1086 23.7969 68.6629C23.767 69.2378 23.6307 69.8019 23.395 70.3255C23.625 70.0153 23.9135 69.7549 24.2438 69.5596C24.574 69.3642 24.9394 69.2379 25.3183 69.1879ZM30.2557 12.7175V10.9091H26.811C26.7682 11.4624 26.7682 12.0183 26.811 12.5717C26.8142 13.7386 27.0896 14.8882 27.6148 15.9261C28.3508 14.742 29.2389 13.663 30.2557 12.7175ZM35.3366 13.8259V10.7632C34.4511 11.2216 33.4553 11.4139 32.466 11.3174V13.8259C32.4107 14.2909 32.4107 14.761 32.466 15.226V15.9261C33.3272 14.5843 34.2458 13.7384 35.3366 13.8259ZM41.9388 70.7338C40.7372 69.1732 39.6346 67.5365 38.6377 65.8335C38.5454 67.6991 38.5454 69.5683 38.6377 71.4339C39.659 70.9115 40.7972 70.6702 41.9388 70.7338ZM44.4362 64.7251C44.4362 63.9667 44.2066 63.675 43.7473 63.8792C43.9147 63.2353 44.0489 62.583 44.1492 61.9249C44.2223 61.4763 44.1726 61.0159 44.0056 60.594C43.8385 60.1722 43.5605 59.8052 43.2019 59.5331C42.0781 60.589 41.0143 61.7089 40.0156 62.8875V66.2419C40.494 66.1817 40.9785 66.2843 41.3934 66.5335C41.2569 66.6816 41.151 66.856 41.082 67.0464C41.0129 67.2367 40.9822 67.4393 40.9916 67.642C41.6185 67.2835 42.1735 66.8086 42.6278 66.2419C43.0091 66.8194 43.2092 67.5007 43.2019 68.1961C43.1915 68.9177 43.0453 69.6305 42.7713 70.2963C43.8908 69.5671 44.4362 67.7003 44.4362 64.7251ZM46.3595 16.9178V12.8634C44.4531 12.6988 42.6363 11.9685 41.1351 10.7632C40.7151 11.6787 40.4808 12.6707 40.4462 13.6801C40.4678 15.6419 41.0898 17.5482 42.2259 19.1346C42.9925 18.56 43.7302 17.9467 44.4362 17.297C43.8142 17.5217 43.135 17.5217 42.513 17.297C42.4534 16.2108 42.5403 15.1215 42.7713 14.0593C42.8578 14.2843 42.8578 14.5342 42.7713 14.7593C42.5991 15.051 42.7426 15.1968 43.2019 15.1968C43.6612 15.1968 43.9195 14.9052 44.0057 14.351L44.1492 13.6509C44.8047 14.7944 45.5435 15.8864 46.3595 16.9178ZM44.5511 24.735L44.2927 23.8891L43.0584 24.5891V25.2892L44.5511 24.735ZM46.216 23.3349H45.3835L44.2927 26.2517L44.9816 26.5434L46.216 23.3349ZM54.5406 58.0163L50.1199 62.0708C50.8663 62.0708 51.2395 62.4208 51.2395 63.1792C52.0085 62.0641 52.8834 61.0285 53.8517 60.0873C54.0114 60.199 54.1437 60.3465 54.2382 60.5185C54.3328 60.6905 54.3872 60.8823 54.3971 61.079C54.5257 60.0637 54.5737 59.0395 54.5406 58.0163ZM53.0192 67.2336C52.9824 66.8883 52.8852 66.5524 52.7321 66.2419C52.6001 65.9356 52.513 65.6113 52.4738 65.2793C52.0145 65.746 51.4117 66.3877 50.6653 67.2336H53.0192ZM52.3303 63.8792H51.6413L50.9524 65.1335L51.6413 65.4251L52.3303 63.8792ZM56.1768 35.7899L54.5406 33.9522H52.7321C52.9323 34.3491 53.1627 34.7294 53.4211 35.0898C53.7127 35.4491 53.9014 35.883 53.9665 36.3441C53.9515 36.6804 53.8633 37.0091 53.7081 37.3066C54.6485 37.0703 55.4919 36.5397 56.1194 35.7899H56.1768ZM55.2008 21.9348C54.6009 21.1135 53.959 20.3249 53.2775 19.5721V22.489C53.9337 22.4554 54.5728 22.2656 55.1434 21.9348H55.2008ZM54.3397 26.2517V24.1808H53.3637V26.2517H54.3397ZM55.2869 43.1695L54.5406 42.4986L53.3063 44.3071L53.9952 44.8613L55.2869 43.1695ZM56.5213 61.8957C56.349 61.8957 55.9472 62.1874 55.2869 62.7416C54.8188 62.3839 54.2315 62.2269 53.6507 62.3041V64.1709C54.8571 63.7459 55.8748 62.8979 56.5213 61.7791V61.8957ZM55.2869 49.5866H54.5406L53.9665 51.2784L54.6554 51.5409L55.2869 49.5866ZM59.7076 24.5891C58.9613 24.3266 58.5881 24.0349 58.5881 23.7724C58.6745 22.9643 58.9609 22.1916 59.4205 21.5264C58.9839 21.1789 58.6877 20.6808 58.5881 20.1263C58.598 19.9296 58.6523 19.7378 58.7469 19.5658C58.8415 19.3938 58.9738 19.2463 59.1335 19.1346C57.9907 19.0878 56.8684 18.8102 55.8323 18.3179C56.5348 18.5792 57.1393 19.0571 57.5614 19.6846C57.9834 20.3122 58.2019 21.0582 58.1862 21.8181C58.1515 24.392 57.4908 26.9171 56.2629 29.1686L55.1434 29.4603C55.715 29.9605 56.4575 30.212 57.2102 30.1603V33.8356C57.6047 33.6854 57.9463 33.4194 58.1917 33.0714C58.437 32.7234 58.575 32.3091 58.5881 31.8813C58.5886 31.4611 58.5049 31.0453 58.3421 30.6592C58.1792 30.273 57.9406 29.9246 57.6408 29.6353C58.3808 29.3256 59.0043 28.784 59.4205 28.0894V27.3893C59.2107 27.0605 59.0761 26.688 59.0264 26.2994C58.9767 25.9107 59.0133 25.5157 59.1335 25.1433C59.5067 24.5891 59.7076 24.4141 59.7076 24.5891ZM61.3438 26.8351L60.5114 26.2517L60.1095 26.6601L60.7984 27.506L61.3438 26.8351Z" fill="#00554B"/>
<path d="M146.398 117.287C146.328 118.461 146.096 119.62 145.71 120.729C145.25 122.216 144.762 123.004 144.188 123.15C143.614 123.296 142.782 123.441 141.576 123.616C140.756 124.939 139.491 125.913 138.016 126.358C138.162 125.491 137.966 124.601 137.471 123.879C136.639 123.879 136.237 124.404 136.237 125.454C135.642 125.318 135.078 125.07 134.572 124.725C134 124.325 133.339 124.074 132.648 123.996C131.922 124.045 131.206 124.202 130.524 124.462C129.828 124.706 129.105 124.863 128.371 124.929C126.497 124.476 124.755 123.576 123.29 122.304C121.555 114.78 120.365 107.137 119.731 99.4357C119.529 99.0211 119.212 98.6758 118.82 98.4425C118.427 98.2091 117.975 98.0981 117.521 98.1231C116.903 98.177 116.319 98.4329 115.856 98.8523C115.436 99.2286 114.917 99.4719 114.363 99.5524C113.999 99.5524 113.856 99.4065 113.932 99.1148C113.932 98.794 113.932 98.6482 113.531 98.6482C112.898 98.7111 112.298 98.9651 111.808 99.3774C111.31 99.7704 110.713 100.013 110.086 100.077C109.441 100.012 108.826 99.7697 108.306 99.3774C107.823 98.9912 107.249 98.7398 106.641 98.6482C105.723 98.6482 104.948 99.2899 104.316 100.602C103.371 99.5592 102.106 98.8706 100.728 98.6482C100.383 98.682 100.065 98.849 99.838 99.1148C99.6065 99.3698 99.2886 99.5262 98.9481 99.5524C97.8732 99.4744 96.8123 99.2588 95.7905 98.9107L92.6329 97.9773V101.39C92.7128 101.713 92.8284 102.026 92.9774 102.323C93.1651 102.738 93.2816 103.182 93.3218 103.636C93.2305 104.418 93.0672 105.189 92.8338 105.94C92.5266 106.759 92.4569 107.65 92.6329 108.507C92.3777 108.875 92.0996 109.226 91.8004 109.557C91.7149 110.735 91.7631 111.92 91.944 113.087C92.1162 114.837 92.2023 116.003 92.2023 116.645C91.8216 119.123 91.0357 121.519 89.8772 123.733C89.5665 124.459 89.0387 125.066 88.3688 125.469C87.6988 125.873 86.9209 126.051 86.1454 125.979C85.4431 125.897 84.7564 125.71 84.1073 125.425C83.4305 125.138 82.7138 124.961 81.9831 124.9C80.7861 125.056 79.6224 125.411 78.5385 125.95C77.4559 126.493 76.2916 126.848 75.0938 127C74.3374 126.899 73.6122 126.63 72.9696 126.212C72.2941 125.932 71.7009 125.48 71.2473 124.9H68.3767C67.6591 121.983 67.2859 120.262 67.2859 119.912C67.6872 117.986 68.2343 116.094 68.9221 114.253C70.0416 110.928 70.6731 108.828 70.8454 107.953C73.0461 96.5577 76.2229 80.8456 80.3756 60.8165L84.6528 39.9026C85.5713 35.7023 86.6334 28.2352 87.8104 17.7053C87.9861 14.3519 88.8774 11.0774 90.4226 8.10887C92.0475 7.24556 93.8217 6.71065 95.647 6.53377C97.5375 6.11943 99.4571 5.85611 101.388 5.74622C102.921 5.80186 104.446 5.97739 105.952 6.27125C107.448 6.56628 108.965 6.74183 110.488 6.79628C110.96 6.75404 111.409 6.57143 111.78 6.27125C112.162 6.00665 112.609 5.85517 113.071 5.83372C114.094 5.68182 115.137 5.75702 116.128 6.05412C117.119 6.35122 118.035 6.86317 118.812 7.55467C119.757 9.23075 120.233 11.1368 120.19 13.0675C120.19 14.4676 120.477 16.5386 120.736 19.2513C121.195 22.8293 122.621 29.5672 125.013 39.4651C125.472 41.4194 125.96 43.8112 126.534 46.6989C127.034 47.506 127.485 48.3438 127.883 49.2074C140.227 92.5714 146.398 115.265 146.398 117.287ZM105.005 94.8271C104.086 94.3798 103.627 93.9423 103.627 93.5145C103.824 93.0224 104.054 92.5448 104.316 92.0852C103.112 90.8144 102.008 89.4489 101.015 88.0016L100.039 88.935C100.159 89.1776 100.255 89.4317 100.326 89.6934C100.326 90.2476 99.9528 90.5101 99.4935 90.5101C98.4888 89.5476 98.087 89.0517 98.2592 89.0517C98.1742 89.2392 98.1302 89.4432 98.1302 89.6496C98.1302 89.8561 98.1742 90.0601 98.2592 90.2476C98.4314 90.5976 98.4888 90.8601 98.4027 91.0351C97.4841 90.5976 97.0249 90.0143 97.0249 89.3142C98.2907 88.4198 99.625 87.6297 101.015 86.9515C101.62 87.0138 102.216 87.1409 102.795 87.3307C103.057 87.4481 103.341 87.5086 103.627 87.5086C103.914 87.5086 104.197 87.4481 104.46 87.3307C103.999 86.4872 103.808 85.5186 103.914 84.5597H100.958L100.814 84.9681C100.701 85.1523 100.538 85.2997 100.344 85.3928C100.151 85.4858 99.9354 85.5206 99.7232 85.4931C98.9702 85.315 98.2521 85.0093 97.599 84.5889C96.9022 84.1755 96.1312 83.9078 95.3312 83.8013C94.4438 82.2662 93.2628 80.9273 91.8579 79.8636V82.2262L92.8051 83.1305C92.6706 83.2307 92.5141 83.2963 92.3491 83.3217C92.1842 83.3471 92.0156 83.3315 91.8579 83.2763L90.7383 83.0138C90.9556 83.227 91.1055 83.5012 91.1689 83.8013C91.1689 83.9764 90.6235 84.3555 89.504 84.9681C89.4652 84.3415 89.5632 83.714 89.7911 83.1305C89.1424 82.2805 88.7176 81.2767 88.5567 80.2136C88.5833 79.6813 88.7741 79.1711 89.1021 78.7552L89.6475 77.9676C89.1882 77.9676 88.4993 77.5301 87.5807 76.655C88.241 76.0425 88.5567 75.5758 88.5567 75.2258C88.5623 75.076 88.5109 74.9297 88.4132 74.8174L87.1789 74.9633H85.2556V77.3259C86.8918 77.1509 87.7243 77.3259 87.7243 77.9676C87.7028 78.3343 87.6049 78.6923 87.4372 79.0177C87.3028 79.3129 87.2156 79.628 87.1789 79.9511C86.9779 79.6011 86.4899 79.4261 85.6575 79.4261C85.3991 79.4261 84.8824 79.7761 84.1361 80.4761C84.1361 79.7761 84.1361 78.6677 84.4231 77.1801C84.5978 76.0005 84.5978 74.8011 84.4231 73.6215C83.8771 73.0949 83.3687 72.5296 82.9017 71.9297C82.9017 72.9798 82.9017 74.1757 83.0452 75.4883C83.1394 76.5362 83.1394 77.5906 83.0452 78.6385C82.9562 79.6746 82.7343 80.6944 82.385 81.672C81.9969 82.7403 81.7648 83.8606 81.6961 84.9973C81.6959 85.4003 81.7441 85.8019 81.8396 86.1932C81.4569 87.0682 80.9115 88.2933 80.2034 89.8684C80.5492 89.5813 80.9136 89.3182 81.2942 89.0809C81.6298 88.8133 81.9961 88.588 82.385 88.41V90.4226C82.1426 90.3459 81.8856 90.3297 81.6358 90.3754C81.3859 90.4211 81.1506 90.5273 80.9497 90.6851C80.627 90.9011 80.2801 91.0774 79.9163 91.2102C80.2895 91.2102 80.5479 91.6769 80.7488 92.6394C80.4854 94.5162 80.4854 96.4214 80.7488 98.2981H81.3229C81.4951 98.2981 81.5813 98.2981 81.5813 98.969C81.5218 99.4668 81.3577 99.9458 81.1001 100.374C80.8426 100.801 80.4976 101.168 80.0886 101.448C80.4429 101.523 80.7603 101.722 80.9858 102.009C81.2112 102.297 81.3305 102.656 81.3229 103.023C81.3229 104.015 80.7201 104.599 79.5145 104.89C79.5885 105.395 79.8318 105.859 80.2034 106.203C80.4791 106.465 80.7117 106.77 80.8923 107.107C80.8873 107.76 80.698 108.398 80.3469 108.945L81.8683 117.345C82.5549 115.42 83.5226 113.611 84.7389 111.978C84.4805 111.978 84.0499 112.27 83.5045 112.882C83.2863 112.536 83.1948 112.123 83.2462 111.716C84.9767 109.91 85.9977 107.524 86.1167 105.007C86.1117 104.138 85.9155 103.281 85.5426 102.498C87.0066 100.923 87.753 100.223 87.753 100.398C87.5807 99.6982 87.753 99.2315 88.04 98.969L87.753 98.2981C87.309 98.4546 86.8447 98.5431 86.3751 98.5606C85.9158 98.5606 85.6862 98.3565 85.6862 97.9189V96.2563C85.6862 96.0813 85.8297 95.9063 86.1167 95.7313C86.4612 95.5563 86.6621 95.4104 86.6621 95.3229C86.5349 94.8043 86.4391 94.2783 86.3751 93.7478C86.4351 93.4464 86.5855 93.1713 86.8057 92.9603C88.1679 93.504 89.3867 94.3629 90.3652 95.4688C92.6692 94.9891 95.0176 94.7642 97.3693 94.7979L105.005 94.8271ZM87.9539 85.1139C86.8164 85.9466 85.6167 86.6877 84.3657 87.3307C84.825 86.3682 85.4278 85.0556 86.1454 83.393C86.1167 84.5889 86.8344 85.1139 88.04 85.1139H87.9539ZM87.5233 56.2079C87.265 56.2079 86.5186 56.7912 85.3417 57.9288C85.8719 57.987 86.3822 58.1665 86.8344 58.4538C86.7892 58.0444 86.8354 57.6298 86.9696 57.2409C87.1038 56.8521 87.3225 56.499 87.6094 56.2079H87.5233ZM87.9539 67.8753C87.616 69.2105 87.2039 70.5252 86.7196 71.8131C85.995 71.2834 85.501 70.4887 85.3417 69.5962C85.4278 68.342 86.289 67.7586 88.04 67.7586L87.9539 67.8753ZM88.4993 89.5767C87.643 89.5123 86.7966 89.7955 86.1454 90.3643C86.3464 90.1893 86.3751 89.8684 86.289 89.4309C86.1736 89.1792 86.087 88.915 86.0306 88.6433C86.3393 88.6054 86.6398 88.5167 86.9205 88.3808C87.1987 88.2383 87.5004 88.1493 87.8104 88.1183C88.3558 88.0016 88.5854 88.4683 88.5854 89.46L88.4993 89.5767ZM87.3798 97.8314V97.0439H86.1167V97.8314H87.3798ZM89.0447 44.1029V43.1987H86.9779V44.1029H89.0447ZM92.2023 91.7935C91.6569 91.356 90.9106 90.831 90.0207 90.2184H88.0687C88.4308 90.6035 88.8898 90.8805 89.3958 91.0193C89.9019 91.1581 90.4356 91.1535 90.9393 91.006C91.0057 92.2569 91.2375 93.4931 91.6282 94.6812L92.2023 91.7935ZM90.767 96.2563H88.1548L89.9633 97.0439L90.767 96.2563ZM92.719 56.4412C92.2167 56.0968 91.7544 55.6956 91.3412 55.2453C91.5996 54.9129 91.7411 54.5022 91.743 54.0786H89.6762C90.5854 55.0051 91.608 55.809 92.719 56.4704V56.4412ZM91.3412 39.2317L91.0541 38.5609L89.8198 39.0859V39.8735L91.3412 39.2317ZM91.3412 29.2561L90.6522 29.1686L90.1068 30.4812L90.767 30.8604L91.3412 29.2561ZM97.0823 18.7262V14.9635H93.5228L91.456 17.1803C91.9153 18.2304 91.9727 19.0179 91.5995 19.543C90.9335 20.3997 90.4629 21.3959 90.2216 22.4598V27.0393C91.2257 26.9578 92.1607 26.488 92.8338 25.7267C91.743 25.7267 91.1976 25.4642 91.1976 24.9391H94.0682C93.2575 24.5183 92.5126 23.9776 91.8579 23.3349C93.1496 22.6348 93.8098 22.2265 93.9247 22.139C93.5555 21.7017 93.3609 21.1397 93.3792 20.5639C93.3854 19.9763 93.5228 19.3978 93.7811 18.8721C94.2251 18.8343 94.6665 18.9699 95.0155 19.2513C95.0521 19.6505 95.1694 20.0377 95.3599 20.3888C95.5514 20.729 95.6689 21.107 95.7044 21.4972C96.2577 20.6306 96.7287 19.7126 97.111 18.7554L97.0823 18.7262ZM91.5995 35.0023C91.9727 34.0397 91.5995 33.2522 90.3652 32.6396C90.191 34.3012 90.2393 35.9791 90.5087 37.6275L90.9106 36.8399C90.834 36.5288 91.0637 35.9163 91.5995 35.0023ZM91.8579 40.836H90.48V39.9318H91.8579V40.836ZM92.9487 48.4782C92.2655 47.162 91.4373 45.929 90.48 44.8029V50.3158C92.0301 49.5866 92.8338 48.9449 92.8338 48.5949L92.9487 48.4782ZM93.5228 28.2352V27.4476H91.456V28.3519L93.5228 28.2352ZM95.159 49.9074H92.6903L91.456 51.22H94.3265C94.4323 50.7531 94.6841 50.3335 95.0442 50.0241L95.159 49.9074ZM93.2357 52.0076L92.5468 53.3202L91.7143 53.0577L92.4033 51.7451L93.2357 52.0076ZM94.0682 30.0728L93.7811 29.2853L92.5468 29.9561V30.7437L94.0682 30.0728ZM95.5896 23.6266L95.3312 22.839L94.0682 23.4807V24.1516L95.5896 23.6266ZM99.1778 20.2138V19.2804H97.2545V20.2138H99.1778ZM104.546 19.6888C104.405 18.6815 104.125 17.6995 103.713 16.7719C103.252 15.7196 102.971 14.5951 102.881 13.4467C101.85 13.9175 100.843 14.4433 99.8667 15.0218C98.575 15.8094 97.8286 16.5969 97.6564 17.3845C98.0429 17.2913 98.4115 17.1336 98.7472 16.9178C99.2069 16.633 99.7306 16.4723 100.269 16.4511C100.728 16.4511 101.187 17.297 101.646 18.9596L102.737 22.8973C102.737 22.5473 102.737 23.1015 102.737 24.5891L103.685 23.9474C103.734 23.2063 103.899 22.4779 104.173 21.7889C104.398 21.1113 104.523 20.4037 104.546 19.6888ZM114.162 78.7552V76.5384C113.839 72.7362 113.293 68.957 112.526 65.221C112.109 61.7982 111.319 58.433 110.172 55.187C109.713 54.6036 109.11 53.7869 108.392 52.7368C107.732 49.8199 106.957 45.7363 106.038 40.3985H104.115C103.72 45.7327 103.03 51.04 102.048 56.2954L98.7472 72.4839C99.0122 74.4927 100.043 76.3153 101.618 77.5593C102.966 79.1725 104.861 80.2132 106.928 80.4761C107.655 80.4761 108.344 79.7761 108.995 78.376C109.867 78.8901 110.857 79.1617 111.866 79.1635C112.654 79.3213 113.473 79.1758 114.162 78.7552ZM103.168 26.2517L102.335 25.9892L101.79 27.3018L102.479 27.7102L103.168 26.2517ZM114.162 85.9015C114.106 86.9892 113.923 88.0663 113.617 89.11C113.312 90.1641 113.129 91.2507 113.071 92.3477L112.239 92.9894C112.067 93.3395 112.239 93.952 113.215 94.8271C113.164 95.0331 113.16 95.2484 113.205 95.456C113.25 95.6635 113.342 95.8576 113.473 96.023C113.017 95.742 112.473 95.6481 111.952 95.7605L110.172 96.023C109.713 96.023 109.167 95.5271 108.536 94.5645C108.239 94.666 107.982 94.8635 107.806 95.1269C107.63 95.3902 107.543 95.7049 107.56 96.023C107.014 96.023 106.727 95.3521 106.727 94.0395H109.081C108.889 93.0801 108.841 92.0967 108.938 91.1227C109.429 91.1948 109.899 91.3739 110.316 91.6477C110.473 91.5161 110.576 91.3284 110.603 91.1227C110.538 90.7548 110.344 90.4232 110.057 90.1893C111.062 90.1893 111.636 90.3351 111.837 90.5976C112.02 90.4085 112.158 90.1789 112.239 89.9267C112.32 89.6759 112.469 89.4534 112.669 89.285C112.468 89.11 112.21 89.11 111.837 89.285C111.295 89.4429 110.736 89.5311 110.172 89.5476C109.713 88.2058 109.139 86.4265 108.392 84.1514L109.77 82.9555C110.488 83.6555 111.004 84.0055 111.292 84.0055C112.382 84.0055 112.928 83.568 112.928 82.6929C113.02 83.2696 113.257 83.8122 113.617 84.268C113.933 84.7561 114.121 85.3185 114.162 85.9015ZM112.526 19.4263V17.5012C112.122 16.9567 111.919 16.2859 111.952 15.6052C111.994 15.0637 111.895 14.5204 111.665 14.0301L110.689 13.3884V17.0636C110.726 17.6756 110.726 18.2893 110.689 18.9012V19.9513C111.043 19.9085 111.39 19.8203 111.722 19.6888C111.979 19.5704 112.249 19.4824 112.526 19.4263ZM114.449 22.3431C113.19 22.3014 111.98 21.8402 111.004 21.0306V22.7223C110.999 24.3897 111.424 26.0294 112.239 27.4768C112.871 27.557 113.478 27.776 114.019 28.1185L112.526 26.8059C112.561 25.3109 112.695 23.8199 112.928 22.3431H114.449ZM113.617 39.8443L113.33 39.1734L111.55 39.6984V40.486L113.617 39.8443ZM113.215 42.5861L112.526 42.3528L111.952 43.7529L112.641 44.0154L113.215 42.5861ZM114.449 30.9187C114.162 30.9187 113.387 30.1603 112.095 28.6727C112.121 29.1894 112.217 29.7 112.382 30.1895C112.529 30.6824 112.616 31.1918 112.641 31.7063C113.11 31.1928 113.76 30.8887 114.449 30.8604V30.9187ZM116.229 17.9095C116.151 17.2421 115.967 16.5919 115.683 15.9844C115.397 15.3885 115.212 14.7473 115.138 14.0884H113.071V16.3344C114.163 16.7505 115.219 17.2578 116.229 17.8512V17.9095ZM114.822 43.4612H113.99L113.301 45.0363L114.133 45.4447L114.822 43.4612ZM116.889 31.7938L116.2 31.5312L115.511 32.8438L116.2 33.1063L116.889 31.7938ZM127.338 72.3673C127.305 71.6339 127.069 70.9249 126.658 70.3214C126.247 69.7178 125.677 69.2441 125.013 68.9545C124.557 69.0348 124.097 69.0836 123.635 69.1004C123.245 69.1175 122.858 69.0268 122.515 68.8379C123.262 68.1378 123.721 67.7878 123.893 67.7878C124.812 67.7878 124.266 67.6419 122.257 67.3794C121.425 67.3794 121.023 67.5253 121.023 68.0503C121.023 68.5753 121.884 69.5671 123.635 71.3172C121.721 72.1922 121.032 72.6298 121.568 72.6298V75.0216C121.743 75.0146 121.918 75.0446 122.081 75.1099C122.244 75.1752 122.392 75.2743 122.515 75.4008C121.252 75.8383 120.592 76.5384 120.592 77.5009C120.6 77.7796 120.665 78.0535 120.784 78.3048C120.902 78.5561 121.072 78.7791 121.281 78.9594L120.477 79.7469C120.305 79.8884 120.165 80.0658 120.066 80.2671C119.967 80.4683 119.911 80.6888 119.903 80.9137C119.903 81.0887 120.133 81.4387 120.592 81.9054C120.987 82.2554 121.233 82.7464 121.281 83.2763C121.326 83.6248 121.326 83.9779 121.281 84.3264H119.645L123.778 89.46H123.09C122.183 89.1524 121.372 88.6094 120.736 87.8849C120.701 88.5293 120.585 89.1665 120.391 89.7809C120.199 90.4057 120.083 91.0523 120.047 91.706C120.771 94.3658 121.732 96.953 122.917 99.4357L123.865 98.3856C123.865 97.8606 124.066 98.6481 124.439 100.748C125.158 100.896 125.887 100.984 126.62 101.011V99.1732C125.357 98.7454 124.898 98.3954 125.242 98.1231C125.624 98.1344 126.001 98.2032 126.362 98.3273C126.717 98.4294 127.084 98.4882 127.453 98.5023C127.453 97.5397 126.936 97.073 125.931 97.073C125.386 97.073 124.467 96.4897 123.061 95.3521C123.869 94.9415 124.772 94.7601 125.673 94.8271C124.941 94.573 124.246 94.2198 123.606 93.777C123.896 93.5254 124.214 93.31 124.553 93.1353C124.899 92.944 125.226 92.7193 125.529 92.4644C126.247 93.252 126.62 93.777 126.62 94.0395H126.477V92.0561C126.591 87.764 126.457 83.4688 126.075 79.1927C124.853 80.015 123.406 80.4234 121.941 80.3594C122.671 79.3636 123.499 78.445 124.41 77.6176C124.629 77.9318 124.912 78.1956 125.238 78.3916C125.564 78.5876 125.928 78.7115 126.305 78.7552C126.405 78.3233 126.591 77.9165 126.85 77.5593C127.107 77.2115 127.293 76.8147 127.395 76.3925C126.68 75.9464 125.99 75.4595 125.329 74.9341C126.678 73.6798 127.367 72.9215 127.367 72.4839L127.338 72.3673ZM125.128 54.8661C124.731 54.9271 124.344 55.0449 123.979 55.2161C123.51 55.3972 123.016 55.5054 122.515 55.537C123.721 55.537 124.324 55.7995 124.324 56.3245C124.284 56.8394 124.187 57.3481 124.037 57.8413C123.884 58.3339 123.787 58.8429 123.75 59.3581C123.754 60.0803 123.901 60.7943 124.18 61.4582C124.806 60.5407 125.146 59.4534 125.156 58.3372L125.128 54.8661ZM124.869 64.2001L124.209 64.1709L123.52 65.4835L124.209 65.746L124.869 64.2001ZM125.415 72.9506L124.869 72.4256L123.491 73.5923L124.037 74.1465L125.415 72.9506ZM125.415 88.4391L124.037 87.1266L123.491 87.6516L124.869 88.8475L125.415 88.4391ZM125.73 84.5889V83.6555H123.778V84.5889H125.73ZM127.367 103.898L125.587 102.09C124.754 102.965 124.353 103.636 124.353 104.074C126.285 104.132 127.29 104.073 127.367 103.898ZM126.821 105.882V105.007L124.353 104.336V105.269L126.821 105.882ZM129.692 80.5053C129.355 80.5405 129.026 80.6291 128.716 80.7678C128.414 80.902 128.095 80.9905 127.769 81.0303C128.486 81.0303 128.859 81.5554 128.859 82.6054C128.812 82.2229 128.852 81.8344 128.977 81.4702C129.101 81.1059 129.307 80.7758 129.577 80.5053H129.692ZM130.237 101.127L129.95 100.486L128.17 101.011V101.798L130.237 101.127ZM130.381 107.72V106.261H129.175V107.72H130.381ZM131.759 110.841L130.955 110.053L130.409 110.578L131.213 111.366L131.759 110.841ZM132.878 97.8314L132.189 97.5689L131.5 98.8815L132.189 99.144L132.878 97.8314ZM132.878 100.748L132.046 99.9607L131.5 100.486L132.333 101.273L132.878 100.748ZM136.438 105.474C136.438 105.474 136.438 105.474 136.179 105.474C134.974 105.474 134.572 106.465 134.945 108.39C135.421 108.913 135.836 109.49 136.179 110.111C135.687 110.692 135.439 111.447 135.49 112.212C135.442 112.648 135.442 113.088 135.49 113.524C134.999 113.596 134.529 113.775 134.112 114.049C134.571 114.432 135.157 114.621 135.749 114.574C135.264 114.787 134.802 115.051 134.371 115.362C133.746 114.443 133.499 113.313 133.682 112.212C133.682 111.259 133.136 110.734 132.046 110.636C133.175 109.245 133.892 107.555 134.112 105.765C134.049 104.481 133.885 103.203 133.624 101.944C133.34 100.613 133.224 99.2506 133.28 97.8898C132.962 97.2525 132.545 96.6714 132.046 96.1688H133.682V94.5937C134.217 94.9359 134.668 95.3975 135.001 95.9433C135.335 96.4891 135.541 97.1049 135.605 97.7439C135.613 97.9403 135.546 98.1322 135.417 98.2791C135.289 98.4261 135.109 98.5165 134.916 98.5315C135.339 99.4833 135.713 100.457 136.036 101.448V102.09C135.655 102.533 135.415 103.082 135.347 103.665C135.362 103.842 135.413 104.014 135.497 104.169C135.581 104.325 135.696 104.461 135.835 104.569C136.137 104.786 136.352 105.108 136.438 105.474ZM134.256 90.8893L132.878 89.5767C132.986 90.4332 133.218 91.2687 133.567 92.0561C133.888 91.6855 134.123 91.2471 134.256 90.7726V90.8893Z" fill="#00554B"/>
<path d="M175.793 124.258C173.187 124.342 170.588 124.595 168.014 125.017C165.441 125.458 162.842 125.721 160.234 125.804C158.455 125.593 156.827 124.682 155.699 123.266C155.699 107.846 155.422 96.1785 154.867 88.2641C154.637 84.9972 154.369 79.1635 154.063 70.763C153.948 64.2292 153.69 51.5895 153.288 32.8438C153.195 29.712 152.946 26.5869 152.541 23.4807C152.14 19.6013 152.14 16.4803 152.14 14.2343C152.14 12.7467 153.747 10.0923 156.933 6.30042L162.933 5.65871L166.033 5.30868C166.578 5.30868 166.665 5.16284 166.291 5.16284C172.032 5.16284 174.903 7.90469 174.903 13.4175C174.728 15.894 174.412 18.358 173.956 20.7972C173.635 25.585 173.635 30.3895 173.956 35.1773C174.128 40.3888 174.214 54.8175 174.214 78.4635C174.157 86.2807 174.683 101.546 175.793 124.258ZM169.363 28.381L168.272 27.9435L167.296 29.8978L168.416 30.3353L169.363 28.381ZM170.052 104.54V95.7896H168.817V104.54H170.052Z" fill="#00554B"/>
<path d="M241.385 119.795C241.367 120.97 241.04 122.118 240.438 123.121L189.457 125.425C188.707 125.033 188.087 124.426 187.674 123.679C187.26 122.933 187.072 122.079 187.132 121.225V108.886C187.132 105.444 187.132 100.136 186.701 93.0769C186.357 87.3891 186.07 82.1387 185.897 77.2967C185.696 73.184 185.438 65.0751 185.065 52.9701C185.065 50.6367 184.921 40.2526 184.634 21.8181C184.513 20.5622 184.203 19.3327 183.716 18.172C183.332 17.0144 183.119 15.8053 183.084 14.5843C183.018 13.0983 183.233 11.6132 183.716 10.209C183.974 9.74232 185.18 8.02137 187.275 5.04617C189.517 4.81954 191.769 4.72216 194.021 4.75449C197.022 4.91563 199.883 6.09699 202.145 8.10887C202.815 8.64 203.362 9.31588 203.744 10.0877C204.126 10.8595 204.335 11.7079 204.355 12.5717C205.159 32.348 205.57 46.2808 205.589 54.3702V101.623C205.624 102.44 205.739 103.251 205.934 104.044C206.127 104.848 206.242 105.668 206.278 106.494C215.847 105.483 223.368 104.978 228.841 104.978C231.711 104.978 234.582 104.978 238.17 105.24C238.683 105.596 239.121 106.053 239.456 106.584C239.791 107.115 240.018 107.71 240.122 108.332C240.174 110.293 240.395 112.245 240.782 114.166C241.136 116.022 241.338 117.905 241.385 119.795ZM194.911 105.007C194.116 105.095 193.355 105.386 192.701 105.853V111.016C193.975 109.262 194.741 107.18 194.911 105.007ZM198.068 99.1732C196.978 99.1732 196.432 98.5606 196.432 97.3647H193.562C193.612 97.8707 193.748 98.364 193.964 98.8232C194.179 99.2823 194.315 99.7756 194.365 100.282L198.068 99.1732ZM198.757 74.7299H195.887C196.676 76.0808 197.284 77.5326 197.695 79.0469L198.757 74.7299ZM198.901 96.8105L197.781 95.5563L197.092 96.373L198.212 97.5106L198.901 96.8105ZM209.551 115.449V112.532H208.316V115.449H209.551ZM212.995 117.695C213.019 117.299 212.951 116.902 212.796 116.538C212.642 116.173 212.405 115.85 212.105 115.595C211.531 115.595 210.24 116.528 208.316 118.512C209.101 118.47 209.879 118.353 210.641 118.162C211.391 117.935 212.16 117.778 212.938 117.695H212.995ZM235.673 116.558L233.749 114.603L233.061 115.449L234.84 117.258L235.673 116.558Z" fill="#00554B"/>
<path d="M305.226 119.795C305.198 120.972 304.861 122.12 304.25 123.121L253.212 125.425C252.467 125.027 251.851 124.419 251.439 123.674C251.026 122.929 250.834 122.078 250.887 121.225V108.886C250.887 105.444 250.743 100.136 250.485 93.077C250.112 87.5058 249.738 82.1387 249.738 77.2968C249.538 73.184 249.279 65.0751 248.906 52.9702C248.906 50.6367 248.772 40.2527 248.504 21.8181C248.425 20.5705 248.164 19.3417 247.729 18.172C247.281 17.0222 246.991 15.8148 246.868 14.5843C246.784 13.102 246.978 11.617 247.442 10.209C247.729 9.74232 248.906 8.02137 251.03 5.04618C253.272 4.81879 255.524 4.72141 257.776 4.75449C260.767 4.92206 263.617 6.10302 265.871 8.10888C266.542 8.64001 267.088 9.31588 267.47 10.0877C267.852 10.8595 268.061 11.7079 268.081 12.5717C268.923 32.348 269.335 46.2808 269.316 54.3702V101.623C269.35 102.44 269.466 103.251 269.66 104.044C269.853 104.848 269.969 105.668 270.005 106.494C279.573 105.483 287.094 104.978 292.567 104.978C295.438 104.978 298.308 104.978 301.925 105.24C302.434 105.597 302.867 106.055 303.197 106.587C303.528 107.118 303.749 107.712 303.848 108.332C303.913 110.293 304.144 112.245 304.537 114.166C304.92 116.02 305.15 117.903 305.226 119.795ZM258.723 105.007C257.928 105.095 257.168 105.386 256.513 105.853V111.016C257.8 109.269 258.567 107.183 258.723 105.007ZM261.881 99.1732C260.79 99.1732 260.245 98.5606 260.245 97.3647H257.374C257.44 97.8677 257.575 98.3588 257.776 98.8232C257.996 99.2826 258.141 99.7751 258.207 100.282L261.881 99.1732ZM262.57 74.7299H259.699C260.472 76.0857 261.07 77.5365 261.479 79.0469L262.57 74.7299ZM262.57 96.8105L261.479 95.5563L260.79 96.373L261.881 97.5106L262.57 96.8105ZM273.162 115.391V112.474H271.928V115.391H273.162ZM276.607 117.637C276.635 117.24 276.569 116.842 276.414 116.476C276.26 116.111 276.02 115.789 275.717 115.537C275.143 115.537 273.88 116.509 271.928 118.454C272.712 118.412 273.491 118.295 274.253 118.104C275.07 117.885 275.907 117.748 276.75 117.695L276.607 117.637ZM299.284 116.499L297.361 114.545L296.672 115.391L298.481 117.199L299.284 116.499Z" fill="#00554B"/>
<path d="M369.584 120.058C369.594 121.103 369.393 122.14 368.993 123.103C368.593 124.066 368.003 124.936 367.259 125.658C366.889 125.278 366.437 124.99 365.939 124.818C365.441 124.646 364.91 124.594 364.389 124.667C345.96 124.667 332.391 124.9 323.684 125.367C322.565 125.367 320.813 125.687 318.374 126.067C316.533 126.386 314.672 126.571 312.805 126.621C312.164 125.802 311.695 124.859 311.427 123.85C311.427 115.624 311.427 106.018 311.427 95.0313C311.427 82.6638 311.025 72.3964 310.479 64.2876C310.192 60.204 310.049 54.5453 310.049 47.3698C310.049 45.328 310.049 42.2361 309.848 38.0942C309.647 33.9522 309.647 30.8312 309.647 28.7894C309.647 26.7476 309.417 22.6057 308.958 17.472L308.269 9.77149C308.719 8.6775 309.308 7.6479 310.02 6.70879C316.278 6.53378 328.612 6.06708 347.022 5.3087C348.598 5.20079 350.152 4.87701 351.643 4.34613C353.084 3.80951 354.591 3.47583 356.121 3.3544C357.849 3.54668 359.524 4.07133 361.059 4.90034C362.633 5.46984 364.017 6.48122 365.049 7.81719V25.3183C364.66 25.7223 364.248 26.1022 363.814 26.4559C362.148 26.5109 360.487 26.6962 358.848 27.0101C357.219 27.3251 355.568 27.5104 353.911 27.5643L350.208 26.2517C344.897 25.785 340.534 25.5517 337.147 25.5517C336.86 25.5517 335.023 25.9601 331.635 26.8059C330.914 26.9349 330.269 27.3389 329.832 27.9353C329.394 28.5318 329.197 29.2755 329.282 30.0145C329.483 31.6188 329.712 34.6815 329.971 39.2609L330.947 53.0868C330.935 53.4271 330.997 53.7658 331.128 54.0792C331.259 54.3926 331.455 54.6731 331.704 54.901C331.953 55.129 332.248 55.2988 332.569 55.3986C332.889 55.4983 333.227 55.5257 333.559 55.4787C332.812 55.4787 333.559 55.3328 335.482 55.0411C337.405 54.7494 340.018 54.5453 343.06 54.3411C346.993 54.0786 351.127 53.9327 355.432 53.9327C355.938 54.6409 356.398 55.3814 356.81 56.1495C357.356 61.4874 357.643 64.4042 357.643 64.9001C357.581 66.2673 357.389 67.6252 357.069 68.9545C356.523 71.5797 355.92 72.8631 355.289 72.8631C352.149 72.7514 349.022 72.4102 345.931 71.8422C342.842 71.2517 339.714 70.9007 336.573 70.7922C331.635 70.7922 329.339 72.9215 329.712 77.2092L330.401 86.3098C330.86 92.5519 331.09 96.3438 331.09 97.7439C331.09 103.578 332.411 106.699 335.338 106.699L349.921 105.444L364.561 104.132C365.261 104.094 365.962 104.198 366.623 104.439C367.283 104.679 367.89 105.051 368.407 105.532C369.211 116.441 369.603 121.283 369.584 120.058ZM316.91 16.6261C316.912 15.6464 316.816 14.6691 316.622 13.7092L316.364 12.3092C314.946 12.8791 313.459 13.252 311.943 13.4176C311.975 14.0814 312.091 14.7383 312.288 15.3719C312.445 15.8764 312.561 16.3935 312.632 16.9178C312.782 16.7273 312.976 16.5772 313.196 16.4805C313.416 16.3839 313.656 16.3437 313.895 16.3636C314.069 16.3631 314.238 16.4157 314.382 16.5146C314.525 16.6134 314.636 16.754 314.699 16.9178C314.9 17.297 315.13 17.472 315.388 17.472C315.799 17.4863 316.2 17.3402 316.508 17.0636L316.91 16.6261ZM316.508 78.7552L314.584 78.1718V78.8719L316.221 79.5719L316.508 78.7552ZM316.364 105.299V104.307H314.584V105.299H316.364ZM316.077 83.6263L315.388 83.3638L314.699 84.7639L315.532 85.0264L316.077 83.6263ZM318.948 98.9982C318.617 99.0347 318.29 99.103 317.972 99.2024C317.621 99.3328 317.254 99.4113 316.881 99.4357C316.422 99.4357 316.02 99.1149 315.646 98.444C315.273 97.7731 315.044 97.4814 314.958 97.4814C315.087 98.67 315.367 99.8367 315.79 100.952C316.795 100.259 317.862 99.6635 318.976 99.1732L318.948 98.9982ZM316.479 106.553L316.192 105.853L314.958 106.553V107.253L316.479 106.553ZM316.479 109.061L315.79 107.545L315.101 107.807L315.79 109.061H316.479ZM318.287 91.3268V90.481H316.91V91.3268H318.287ZM318.287 83.3638C317.742 83.3638 317.455 82.5763 317.455 80.972C318.144 81.0595 318.431 81.8471 318.431 83.4513L318.287 83.3638ZM318.976 115.449L318.431 115.858L317.742 115.158L318.287 114.603L318.976 115.449ZM319.522 92.5228H318.689V88.76H319.522V92.5228ZM321.043 13.1259L320.211 12.4258L319.78 12.8634L320.469 13.6801L321.043 13.1259ZM325.98 74.9049C325.521 73.9715 324.89 72.7173 324.057 71.1422V72.3964C324.057 73.2423 324.057 73.8257 324.057 74.2049C323.686 74.1907 323.318 74.122 322.966 74.0007C322.652 73.8869 322.323 73.8181 321.99 73.7965C323.091 74.457 324.311 74.8837 325.579 75.0508C325.755 75.113 325.947 75.113 326.124 75.0508L325.98 74.9049ZM324.89 97.6856V95.7313C323.958 96.2456 322.905 96.4879 321.847 96.4314C322.256 96.8725 322.75 97.2241 323.298 97.4649C323.846 97.7056 324.436 97.8303 325.033 97.8314L324.89 97.6856ZM324.459 115.858L324.201 115.012L322.966 115.712V116.674L324.459 115.858ZM324.459 17.1803H323.627L323.081 19.5721H323.914L324.459 17.1803ZM325.148 76.305C323.856 76.305 323.225 76.6842 323.225 77.4134C323.341 77.9414 323.599 78.4262 323.971 78.8135C324.488 79.4844 324.861 79.8053 325.148 79.8053V76.305ZM330.114 16.9178C329.739 16.7155 329.426 16.4129 329.209 16.0427C328.991 15.6725 328.877 15.2488 328.88 14.8177C328.88 16.7719 329.023 15.8969 329.023 12.1633L325.033 12.5717C324.728 12.6095 324.419 12.5325 324.165 12.3552C323.911 12.178 323.73 11.9126 323.655 11.6091V17.1803C324.66 16.2469 325.378 15.7802 325.837 15.7802C326.296 15.7802 326.727 16.2177 327.645 17.0636C327.468 17.1793 327.332 17.3485 327.254 17.5474C327.177 17.7462 327.163 17.9647 327.215 18.172C328.207 17.8186 329.176 17.3997 330.114 16.9178ZM325.98 70.2963V69.4504H323.655V70.2963H325.98ZM325.579 117.549C325.579 117.812 325.32 118.22 324.832 118.745C324.344 119.27 323.914 119.504 323.655 119.504V116.995C324.343 116.92 325.032 117.119 325.579 117.549ZM325.292 98.6773L324.488 98.3856L323.914 99.669L324.603 100.077L325.292 98.6773ZM325.292 106.086L324.746 104.54L324.057 104.832L324.631 106.086H325.292ZM325.722 107.34C324.717 107.34 324.201 107.72 324.201 108.449C324.201 109.178 324.43 109.732 324.89 109.732C325.125 109.377 325.264 108.964 325.292 108.536C325.282 108.119 325.381 107.706 325.579 107.34H325.722ZM325.722 92.5228L325.033 93.9229L324.344 93.5145L325.033 92.2311L325.722 92.5228ZM326.813 102.878C326.296 102.818 325.803 102.628 325.378 102.323C325.056 102.09 324.709 101.894 324.344 101.74C324.516 101.74 324.689 102.09 324.832 102.79C324.874 103.269 325.032 103.73 325.292 104.132C326.124 103.286 326.641 102.878 326.813 102.878ZM328.736 112.241V110.841H327.904V112.241H328.736ZM351.299 111.249C350.262 110.787 349.296 110.178 348.428 109.441C347.286 109.299 346.134 109.25 344.984 109.295C340.835 109.395 336.695 109.726 332.583 110.286L331.492 109.295C331.153 109.615 330.718 109.81 330.258 109.849C330.553 111.37 330.553 112.936 330.258 114.458C330.085 114.924 329.741 115.916 329.282 117.374L332.152 116.966C332.599 116.628 333.012 116.247 333.387 115.828V116.266C334.608 116.959 335.978 117.34 337.377 117.374C338.211 117.198 339.008 116.872 339.73 116.412C340.435 115.932 341.225 115.595 342.056 115.42C342.683 115.463 343.292 115.653 343.835 115.974C344.32 116.24 344.829 116.455 345.357 116.616C345.644 116.616 345.873 116.879 346.103 117.316C346.333 117.754 346.562 117.929 346.735 117.929C347.082 117.594 347.506 117.354 347.969 117.229C347.575 116.798 347.29 116.278 347.136 115.712C347.101 115.618 347.101 115.514 347.136 115.42C347.596 115.42 347.825 115.887 347.825 116.82L349.749 116.266C349.83 115.81 350.017 115.38 350.294 115.012C349.203 115.012 348.514 115.012 348.256 114.574C348.564 113.991 348.833 113.386 349.06 112.766C349.249 112.32 349.561 111.939 349.958 111.67C350.355 111.401 350.821 111.255 351.299 111.249ZM333.128 14.8177H330.659C330.707 15.1234 330.825 15.4133 331.004 15.6635C331.186 15.9011 331.305 16.1824 331.348 16.4803C331.348 16.6844 331.951 16.1302 333.128 14.8177ZM332.181 17.3262L331.894 16.6261L330.659 17.1803V17.8804L332.181 17.3262ZM339.185 63.1792C338.266 63.1792 337.75 62.3916 337.606 61.079C337.617 60.4966 337.456 59.9241 337.144 59.4355C336.832 58.9468 336.383 58.5643 335.855 58.3372C335.42 59.2471 335.185 60.2425 335.166 61.254C335.06 61.266 334.953 61.2478 334.857 61.2015C334.761 61.1551 334.679 61.0824 334.621 60.9915C334.621 60.7873 334.305 60.6998 333.932 60.6998C332.755 60.6998 332.152 61.3707 332.152 62.6541L332.554 62.3916C332.829 62.3342 333.112 62.3342 333.387 62.3916H334.276C334.572 62.4191 334.87 62.4191 335.166 62.3916C333.788 63.5292 333.099 64.5501 333.099 65.4835C333.173 66.2302 333.367 66.9594 333.674 67.642C333.958 68.3306 334.142 69.0578 334.219 69.8004H335.999C336.969 69.4274 337.857 68.8623 338.611 68.1378V65.7752C338.133 65.831 337.65 65.7287 337.233 65.4835C337.606 65.0741 337.933 64.6241 338.209 64.1417C338.504 63.7902 338.83 63.4679 339.185 63.1792ZM333.702 60.5248L333.415 59.6789L332.181 60.379V61.079L333.702 60.5248ZM341.252 18.5804C341.065 17.9601 340.741 17.3914 340.305 16.9178C340.074 15.2344 340.162 13.5217 340.563 11.8716C340.104 11.1424 339.616 10.7632 339.042 10.7632C338.467 10.7632 338.123 11.2299 337.405 12.1633C337.035 12.1371 336.669 12.0686 336.314 11.9591C335.954 11.8279 335.577 11.7494 335.195 11.7258C335.43 13.0399 335.342 14.3928 334.937 15.6635L334.104 15.9261C335.023 16.3053 335.626 18.2595 335.884 21.7598L336.716 21.1764C336.544 20.5888 336.447 19.9809 336.429 19.368C336.437 18.629 336.635 17.9049 337.003 17.2678C337.454 17.4867 337.869 17.7717 338.238 18.1137C338.113 18.4561 338.098 18.83 338.196 19.1813C338.294 19.5327 338.5 19.8432 338.783 20.068C338.783 21.3806 338.18 22.0223 337.003 22.0223C337.619 22.02 338.233 21.9713 338.841 21.8764C339.462 21.8422 340.085 21.8422 340.706 21.8764C340.489 21.314 340.489 20.6888 340.706 20.1263C340.941 19.6318 341.124 19.1137 341.252 18.5804ZM341.252 111.395C340.94 111.356 340.638 111.257 340.362 111.103C340.082 110.964 339.781 110.875 339.472 110.841V113.349C339.744 112.977 340.074 112.652 340.448 112.387C340.85 111.92 341.108 111.57 341.108 111.395H341.252ZM345.385 117.549C344.839 117.119 344.15 116.92 343.462 116.995C343.462 117.374 342.945 118.162 341.941 119.358H344.295C344.563 119.135 344.784 118.861 344.947 118.55C345.11 118.24 345.21 117.9 345.242 117.549H345.385ZM348.428 66.3877C347.395 66.3877 346.62 65.5418 346.074 64.1417C346.074 63.9667 346.189 63.6167 346.419 63.0917C346.651 62.7906 346.818 62.4425 346.907 62.0708C346.511 61.995 346.131 61.8467 345.787 61.6332C345.354 61.4594 344.872 61.4594 344.438 61.6332C344.705 63.5953 345.069 65.5423 345.529 67.4669C346.073 67.4108 346.595 67.2206 347.05 66.9127C347.426 66.6612 347.845 66.4832 348.285 66.3877H348.428ZM349.921 19.4263C348.592 19.3479 347.26 19.3479 345.931 19.4263C346.218 19.4263 346.993 20.2138 348.285 21.7889L349.175 20.6222C349.439 20.2601 349.643 19.856 349.777 19.4263H349.921ZM355.949 12.7175H354.169L353.882 13.1259C353.805 13.3118 353.671 13.4682 353.501 13.5729C353.331 13.6776 353.133 13.7253 352.935 13.7092C352.516 13.68 352.102 13.6017 351.701 13.4759C351.286 13.3726 350.863 13.3043 350.438 13.2717V11.6674C349.482 11.7496 348.522 11.7496 347.567 11.6674C347.472 12.238 347.288 12.7894 347.022 13.3009C346.704 13.8757 346.509 14.5115 346.448 15.1677C346.46 15.8594 346.738 16.5188 347.223 17.0053C347.591 17.3656 347.893 17.7905 348.112 18.2595C348.377 17.5943 348.476 16.8728 348.4 16.1594C349.031 16.1594 349.978 16.1594 351.27 15.9552C352.222 15.8266 353.18 15.7487 354.141 15.7219C355.203 15.7802 355.949 14.7593 355.949 12.7175ZM350.438 62.3041L347.969 61.6041C347.969 63.3833 347.797 64.5209 347.424 64.6959C347.596 64.4918 347.94 64.4918 348.4 64.6959L349.347 65.1043C349.232 63.5 349.605 62.5666 350.208 62.1874L350.438 62.3041ZM359.049 110.257V108.303C358.332 109.032 357.872 109.411 357.7 109.411C357.528 109.411 357.04 109.236 357.126 108.857L356.581 108.303H354.657C354.657 108.478 354.944 108.711 355.547 109.003C355.914 109.142 356.261 109.328 356.581 109.557C356.388 109.945 356.338 110.389 356.437 110.811C356.437 111.191 356.638 111.57 356.724 111.92C356.888 111.209 357.119 110.515 357.413 109.849C357.7 109.869 357.981 109.938 358.246 110.053C358.432 110.107 358.625 110.136 358.82 110.141L359.049 110.257ZM355.748 118.512V113.495H354.944V118.395L355.748 118.512ZM358.619 12.98V12.0175H357.241V12.8634L358.619 12.98ZM361.231 12.98L359.451 13.6801C359.279 13.6801 358.705 13.9718 357.815 14.7885L359.451 14.2343C359.647 14.2607 359.846 14.243 360.035 14.1826C360.223 14.1221 360.396 14.0202 360.542 13.8843C360.685 13.3009 360.915 13.0092 360.915 12.7175L361.231 12.98ZM360.542 116.12L358.906 115.712L358.36 118.629L359.595 118.191C359.559 117.871 359.559 117.548 359.595 117.229C359.536 117.098 359.505 116.955 359.506 116.811C359.506 116.667 359.538 116.525 359.598 116.394C359.658 116.264 359.745 116.148 359.854 116.056C359.962 115.963 360.089 115.895 360.226 115.858L360.542 116.12ZM359.451 115.012V112.095H358.504V115.012H359.451Z" fill="#00554B"/>
<path d="M512.079 82.6054C511.893 88.4957 511.163 94.3552 509.897 100.107C508.232 108.303 506.596 113.087 504.931 114.487C496.147 121.866 487.995 125.425 480.732 125.425C479.597 125.387 478.465 125.27 477.345 125.075C476.235 124.879 475.113 124.762 473.986 124.725C466.332 124.725 460.964 122.586 457.883 118.308C456.846 116.85 455.539 115.611 454.036 114.662L450.333 103.898C449.012 100.223 448.313 96.3475 448.266 92.4352C448.266 83.9472 448.094 74.4674 447.434 63.9375L446.343 45.328C445.416 35.4557 447.278 25.5195 451.711 16.6844C456.38 8.20608 464.447 3.96692 475.91 3.96692C487.373 3.96692 495.984 7.08796 501.745 13.33C507.601 19.5721 510.538 28.4685 510.557 40.0193C510.511 40.7173 510.366 41.4049 510.127 42.0611C509.906 42.711 509.771 43.3878 509.725 44.0737C503.847 43.935 497.967 44.2176 492.128 44.9196L490.865 34.6523C490.249 30.3653 488.285 26.3956 485.268 23.3349C484.253 22.2264 481.641 21.6722 477.431 21.6722C475.876 21.7994 474.368 22.273 473.013 23.0594C471.659 23.8459 470.492 24.9258 469.594 26.2225C467.305 28.5968 465.852 31.6731 465.461 34.9731L465.317 37.6275L465.03 40.836V38.59C465.03 38.415 465.116 38.765 465.289 39.6401C465.289 40.5443 465.49 41.9444 465.576 43.8987C466.59 61.3999 467.049 73.0089 466.954 78.726C466.479 85.3524 467.129 92.0125 468.877 98.4148C469.805 100.821 471.464 102.865 473.613 104.248C475.693 105.736 478.161 106.558 480.704 106.611C484.464 106.611 487.622 104.103 490.205 99.0565C490.83 97.6663 491.33 96.2214 491.698 94.7395C491.698 91.3851 492.214 86.6307 492.932 80.4761C495.837 79.3795 498.945 78.9512 502.032 79.2219C505.125 79.1468 508.216 79.4306 511.246 80.0677C511.675 80.8542 511.958 81.7146 512.079 82.6054ZM461.471 97.5689L460.638 100.486L459.547 100.077L460.495 97.4231L461.471 97.5689ZM462.16 48.2157L461.758 47.1072L459.949 47.9531V49.0615L462.16 48.2157ZM462.992 39.4651V35.9649H461.758V39.4651H462.992ZM466.552 23.539C465.035 23.6347 463.533 23.1913 462.303 22.2848C462.572 23.7064 462.659 25.1575 462.562 26.6017C462.303 30.2478 462.16 31.5604 462.16 30.5103C462.806 30.193 463.367 29.7227 463.796 29.1389C464.226 28.5552 464.511 27.8751 464.628 27.1559L465.03 23.6265L466.552 23.539ZM468.36 18.7846C468.36 19.1637 467.528 19.3388 465.863 19.3388C466.377 19.9308 466.716 20.6591 466.839 21.4389C467.633 20.797 468.173 19.8857 468.36 18.8721V18.7846ZM469.451 12.4841C468.606 11.912 467.589 11.6639 466.58 11.7841C466.886 12.8233 466.984 13.9144 466.867 14.9926C466.867 14.7301 467.298 14.3218 468.159 13.7384C469.02 13.155 469.451 12.8633 469.451 12.5716V12.4841ZM477.833 16.8303L474.819 15.8385V16.9761L477.431 17.9387L477.833 16.8303ZM483.574 111.599C483.574 112.795 482.656 113.787 480.704 114.516L476.426 115.653C476.171 115.388 476.027 115.033 476.025 114.662C476.041 114.344 476.121 114.033 476.259 113.747C476.397 113.461 476.591 113.207 476.828 112.999C476.2 112.53 475.42 112.322 474.647 112.416L475.479 111.016C475.875 110.395 476.112 109.683 476.168 108.945C477.165 109.625 478.288 110.092 479.469 110.316C480.219 110.262 480.946 110.032 481.593 109.645C482.161 109.282 482.796 109.044 483.459 108.945L483.574 111.599ZM485.756 10.9674C485.074 10.9102 484.405 10.7428 483.775 10.4715C483.134 10.2027 482.456 10.0355 481.766 9.97565C481.134 9.97565 480.818 10.2673 480.818 10.8215C480.818 11.3757 480.531 11.5216 479.986 11.5216C479.474 11.4929 478.966 11.4247 478.464 11.3174C477.967 11.187 477.457 11.1088 476.943 11.0841C477.994 11.521 479.011 12.0378 479.986 12.63C478.522 14.1176 477.776 15.226 477.776 15.9844C479.027 16.5922 480.149 17.4445 481.077 18.4929C482.655 19.9805 483.746 20.7389 484.378 20.7389C485.194 20.6343 485.962 20.2896 486.588 19.7471C486.079 16.8785 485.82 13.9698 485.813 11.0549L485.756 10.9674ZM481.364 113.816H478.493C478.882 113.533 479.213 113.176 479.469 112.766C479.928 112.182 480.302 111.861 480.56 111.861C480.691 112.6 480.986 113.298 481.421 113.903L481.364 113.816ZM498.128 106.407L497.18 104.19L496.09 104.599L497.037 106.407H498.128ZM502.347 93.5145C501.141 90.9966 500.616 88.1978 500.826 85.4056C499.808 85.3905 498.808 85.6851 497.956 86.2515V93.5145H502.347ZM500.97 96.8688L500.568 95.7313L498.099 96.5772V97.6856L500.97 96.8688ZM500.424 39.5526L499.477 37.4524L498.501 37.89L499.333 39.5526H500.424ZM500.711 104.978V102.09L498.788 104.19C499.482 104.28 500.137 104.562 500.683 105.007L500.711 104.978ZM503.18 99.3773C502.674 98.8795 502.066 98.5011 501.4 98.2689C500.654 98.2689 500.281 99.2315 500.281 101.186C500.998 101.186 501.946 100.573 503.151 99.3773H503.18ZM506.481 97.9772C505.566 97.8636 504.68 97.5767 503.869 97.1314C504.465 96.1247 504.708 94.9421 504.558 93.777C504.099 93.777 503.697 95.1771 503.323 97.9772H506.481Z" fill="#00554B"/>
<path d="M581.144 91.1226C580.781 91.1226 580.599 100.398 580.599 118.949V124.258C579.135 124.258 575.03 124.258 568.342 124.812C564.208 125.104 561.653 124.492 560.649 123.004V119.358L560.792 106.086V75.605H542.076L542.765 123.266C539.969 123.383 537.187 123.715 534.44 124.258C531.694 124.795 528.911 125.117 526.116 125.221C524.385 125.001 522.808 124.101 521.724 122.712V78.7552C521.724 76.8884 521.724 74.1465 521.437 70.5588C521.15 66.9711 521.178 64.2584 521.178 62.3916C521.178 56.3245 521.178 51.5409 520.891 47.9823C519.973 43.3445 519.513 41.0985 519.513 41.2735C519.584 40.8141 519.772 40.3816 520.059 40.0193C520.371 39.6167 520.561 39.13 520.604 38.6192L521.58 24.7933C521.566 22.33 521.238 19.8788 520.604 17.5011C520.042 15.1964 519.696 12.8427 519.571 10.4715C519.611 9.60722 519.726 8.74822 519.915 7.90469C520.105 7.05138 520.221 6.18265 520.26 5.30868C521.238 4.3806 522.295 3.54124 523.417 2.80018C527.038 1.50561 530.861 0.892767 534.699 0.991732C535.824 1.35435 536.976 1.62741 538.143 1.80845C539.78 3.12104 540.612 4.28778 540.612 5.30868C540.612 14.4482 540.937 27.681 541.588 45.0071C541.588 46.4072 541.76 49.3824 541.846 53.9619L554.104 54.5161C555.826 54.5161 558.094 54.8369 560.849 55.2161C560.849 53.0577 560.849 51.1034 560.706 49.3824C560.654 48.6756 560.51 47.979 560.275 47.3114C560.048 46.5832 559.913 45.8284 559.873 45.0655C559.873 43.2862 559.873 40.7193 559.873 37.3066C559.873 33.8939 560.017 31.4729 560.017 29.5478C560.017 26.6309 559.73 21.9639 559.185 15.4302L558.352 5.65871C558.352 5.27951 558.783 4.6378 559.673 3.70441C560.242 3.1709 560.726 2.55101 561.108 1.86679C564.137 1.92397 567.167 1.78758 570.179 1.45843C571.523 1.07019 572.837 0.582756 574.111 0C574.969 0.126278 575.808 0.361464 576.609 0.700046C577.329 1.46061 578.106 2.16279 578.934 2.80018C579.789 3.56001 580.375 4.58519 580.599 5.71704C579.92 13.5724 579.69 21.4612 579.91 29.3436C579.91 29.5186 580.082 33.4855 580.455 41.2152C580.714 47.924 580.857 54.2827 580.857 60.2331V82.1679C581.154 83.7335 581.251 85.3316 581.144 86.9224V91.1226ZM525.57 25.2892V24.4724H523.647V25.2892H525.57ZM538.086 13.8259C538.053 12.121 537.871 10.4224 537.541 8.75057L535.33 10.0048C534.186 9.96075 533.044 10.1492 531.972 10.559C530.974 10.9333 529.931 11.1688 528.871 11.2591C529.13 11.2591 529.273 11.2591 529.273 11.2591C529.273 11.2591 528.699 10.6174 527.551 10.1507C526.797 9.79302 525.994 9.55684 525.168 9.45062C524.637 10.8839 524.309 12.3865 524.192 13.9134C524.455 13.2086 524.823 12.5494 525.283 11.9591C525.553 12.6261 525.699 13.3382 525.714 14.0593C525.701 14.6345 525.604 15.2046 525.427 15.751C526.008 16.177 526.424 16.7961 526.604 17.5011C526.776 18.0691 527.028 18.6093 527.35 19.1054C528.109 18.0024 528.408 16.6396 528.183 15.3135C529.275 14.2153 530.238 12.9917 531.053 11.6674L533.924 10.4132C533.764 11.1512 533.677 11.9036 533.665 12.6592C533.674 13.0422 533.758 13.4197 533.91 13.77C534.063 14.1204 534.282 14.4367 534.555 14.701C534.946 15.045 535.293 15.4369 535.589 15.8677C535.732 14.2634 536.622 13.5634 538.086 13.8259ZM525.714 30.5978C525.501 30.1007 525.165 29.6685 524.738 29.3436L524.192 33.398C524.911 32.6003 525.432 31.6405 525.714 30.5978ZM525.312 28.2352V26.8351H524.365V28.2352H525.312ZM527.12 68.7795C527.035 68.275 526.839 67.7965 526.546 67.3794C525.992 67.4599 525.473 67.7032 525.054 68.0795C525.629 68.5525 526.352 68.8009 527.092 68.7795H527.12ZM533.034 94.7687C532.739 93.9922 532.509 93.1922 532.345 92.3769C532.208 92.5903 532.11 92.8276 532.058 93.0769C531.702 93.615 531.235 94.0683 530.69 94.4056C530.145 94.743 529.534 94.9564 528.9 95.0312C528.068 95.0312 527.809 95.0312 528.068 94.7687C528.861 94.0051 529.333 92.9605 529.388 91.8519C529.47 91.0613 529.624 90.2802 529.847 89.5184L530.68 89.11C529.302 89.11 528.613 88.7308 528.613 88.0016C528.613 87.2724 528.613 86.1932 528.814 84.8514C529.015 83.5097 529.044 82.4596 529.044 81.7012C528.376 81.7849 527.699 81.6413 527.12 81.2928V80.0386C528.498 79.2802 529.159 78.4927 529.159 77.6468C527.809 77.0051 527.12 76.5967 527.12 76.3925C528.125 75.3716 528.613 74.7591 528.613 74.5841C527.672 74.0867 526.909 73.3009 526.431 72.3381C526.144 73.0965 525.743 74.0299 525.197 75.2549C525.197 80.0969 525.197 84.0055 525.197 86.7182C525.318 88.7248 525.231 90.7387 524.939 92.7269C525.641 94.4069 526.011 96.2106 526.03 98.0356C526.255 98.2817 526.532 98.4726 526.84 98.5939C527.148 98.7151 527.48 98.7636 527.809 98.7356C528.01 98.7356 528.556 98.2689 529.474 97.3356C528.47 97.3356 527.953 97.0439 527.953 96.4897C528.623 96.2373 529.252 95.8832 529.819 95.4396C530.391 94.9689 531.073 94.6574 531.799 94.5354C532.005 94.4888 532.219 94.4855 532.426 94.5256C532.633 94.5658 532.83 94.6485 533.005 94.7687H533.034ZM527.092 26.6893L526.805 25.9892L525.714 26.6893V27.3893L527.092 26.6893ZM528.728 21.9348L528.183 21.3806L526.948 22.6348L527.494 23.189L528.728 21.9348ZM529.704 100.69C529.962 100.223 529.704 99.5815 528.728 98.7356V101.244C528.922 101.212 529.109 101.142 529.276 101.037C529.444 100.932 529.589 100.794 529.704 100.632V100.69ZM530.795 81.672V79.7177H529.962V81.672H530.795ZM536.163 111.307C535.416 109.81 534.459 107.865 533.292 105.474C532.678 106.122 531.85 106.517 530.967 106.582C531.886 106.971 532.345 107.438 532.345 107.982C532.144 109.674 532.058 110.316 532.058 109.936C532.635 110.019 533.22 109.873 533.694 109.528L534.526 110.228L532.46 112.474C533.127 112.539 533.8 112.464 534.437 112.253C535.074 112.042 535.661 111.701 536.163 111.249V111.307ZM535.732 89.5184L535.474 88.8183L534.239 89.3725V90.0726L535.732 89.5184ZM536.45 20.0388V18.0262H535.474V19.9805L536.45 20.0388ZM539.32 96.0813V93.1645C538.95 92.8287 538.65 92.4206 538.438 91.9646C538.226 91.5087 538.106 91.014 538.086 90.5101C538.008 90.149 538.006 89.7752 538.081 89.4133C538.155 89.0514 538.303 88.7095 538.517 88.41C538.355 88.2104 538.255 87.9669 538.229 87.7099C538.321 87.3477 538.37 86.9755 538.373 86.6015C538.344 85.9466 538.277 85.294 538.172 84.6472C538.046 84.0028 537.969 83.3494 537.942 82.6929C537.894 82.1259 537.997 81.5562 538.239 81.0431C538.481 80.53 538.855 80.0925 539.32 79.7761H536.45C536.45 83.1305 536.622 87.5933 536.995 93.1936L536.45 95.4396C536.956 95.4648 537.457 95.5529 537.942 95.7021C538.34 95.8575 538.754 95.9651 539.177 96.023L539.32 96.0813ZM540.296 104.336V99.1732C539.758 98.4273 539.163 97.7251 538.517 97.073C538.546 97.4824 538.685 97.8759 538.918 98.2106C538.218 98.6997 537.633 99.3406 537.207 100.087C536.78 100.834 536.521 101.667 536.45 102.528L538.373 103.519C538.916 103.88 539.519 104.137 540.153 104.278L540.296 104.336ZM538.086 104.044L537.253 103.753L536.708 105.153L537.397 105.444L538.086 104.044ZM545.119 63.5V60.5831L542.076 63.0916V64.9001C542.212 65.0259 542.32 65.179 542.394 65.3498C542.468 65.5206 542.507 65.7052 542.507 65.8918C543.223 64.9713 544.053 64.1479 544.975 63.4417L545.119 63.5ZM567.251 11.3757C567.251 10.734 566.246 10.4132 564.237 10.4132C563.586 10.4132 563.213 10.6465 563.117 11.1132C563.117 11.5799 563.117 11.7841 563.663 11.7841C564.696 12.8342 565.328 13.33 565.615 13.33C566.562 12.1633 567.107 11.6674 567.107 11.3174L567.251 11.3757ZM575.087 65.0459C574.815 64.6402 574.497 64.2682 574.14 63.9375C574.14 63.3833 574.14 62.3041 574.14 60.729C574.341 56.9954 573.911 54.8953 572.906 54.5744C573.04 53.881 573.04 53.1677 572.906 52.4743C572.016 52.6493 571.643 53.116 571.815 53.8744C572.016 55.2745 572.102 55.8287 572.102 55.537C571.81 55.5514 571.519 55.5119 571.241 55.4203C570.978 55.3023 570.696 55.2332 570.408 55.2161C570.408 53.816 570.15 53.116 569.605 53.116L569.031 56.0328C569.571 55.963 570.116 56.1094 570.552 56.4412C570.119 56.98 569.659 57.496 569.174 57.9871C569.236 59.228 569.149 60.4719 568.916 61.6915C568.689 62.8166 568.545 63.9574 568.485 65.1043C568.506 65.7648 568.602 66.4207 568.772 67.0586C568.912 67.662 568.999 68.277 569.031 68.8962L570.265 68.4587C570.638 68.4587 570.839 68.4587 570.839 68.6045C570.692 68.8314 570.495 69.0209 570.265 69.1587C569.47 72.0031 569.102 74.9533 569.174 77.9093C569.174 79.0469 569.174 80.6511 569.318 82.7221C569.461 84.7931 569.461 86.4557 569.461 87.5641C569.504 89.8688 569.272 92.1703 568.772 94.4187C569.455 96.1893 569.644 98.1172 569.318 99.9899C568.571 100.923 567.308 102.382 565.471 104.336C565.941 104.44 566.371 104.684 566.705 105.036C567.321 104.239 568.196 103.691 569.174 103.49C570.007 103.49 570.265 103.636 570.007 103.898C569.922 104.483 569.758 105.052 569.519 105.59C569.247 106.151 569.128 106.775 569.174 107.399C569.502 107.491 569.789 107.695 569.988 107.976C570.186 108.258 570.284 108.599 570.265 108.945C570.309 109.313 570.309 109.685 570.265 110.053C570.559 109.719 570.916 109.448 571.316 109.257C571.716 109.067 572.149 108.961 572.59 108.945C572.302 108.616 572.07 108.241 571.901 107.836C572.734 102.79 573.135 100.748 573.135 101.682C573.144 99.7443 572.722 97.8298 571.901 96.0813C572.229 95.7021 572.63 95.3945 573.078 95.1771C573.767 94.7687 574.111 94.3604 574.111 93.9812V85.4056H573.566C572.506 84.5331 571.818 83.2798 571.643 81.9054C571.643 81.3512 572.332 80.6511 573.681 79.8052C572.784 79.5633 571.91 79.2412 571.069 78.8427C571.532 77.6525 572.139 76.5257 572.877 75.4883C573.133 76.4889 573.268 77.5173 573.279 78.551C573.597 78.195 573.836 77.7737 573.979 77.3158C574.123 76.8578 574.168 76.3739 574.111 75.8967C574.111 74.9633 574.111 74.0882 574.111 73.2423C574.542 67.3794 574.944 64.6084 574.944 64.9876L575.087 65.0459ZM568.916 114.633C568.245 112.375 568.05 110 568.342 107.661H566.418C566.964 108.379 567.257 109.262 567.251 110.17C567.214 111.015 567.099 111.855 566.906 112.678C566.714 113.511 566.598 114.361 566.562 115.216C566.966 115.176 567.362 115.078 567.739 114.924C568.06 114.72 568.408 114.563 568.772 114.458L568.916 114.633ZM570.007 8.28388L569.318 7.72967L568.083 9.53813L568.772 10.0923L570.007 8.28388ZM573.853 9.12977C572.674 8.85566 571.521 8.47495 570.408 7.99219C570.486 8.21808 570.535 8.45348 570.552 8.69224C570.552 9.62563 569.806 10.4132 568.342 11.0841V16.9178C568.714 16.767 569.038 16.5164 569.281 16.1928C569.524 15.8691 569.675 15.4846 569.719 15.0802C569.893 14.3537 569.989 13.6106 570.007 12.8633C570.415 13.323 570.942 13.6566 571.528 13.8259C571.872 13.8259 572.475 13.4175 573.308 12.5717C573.076 12.2585 572.928 11.8899 572.878 11.5016C572.827 11.1132 572.877 10.7182 573.021 10.3548C573.097 9.82543 573.339 9.33483 573.71 8.95475L573.853 9.12977ZM570.839 24.2099L568.916 23.2474L568.342 24.2099H570.839ZM569.863 20.418L569.031 20.1263L568.485 21.5264L569.174 21.8181L569.863 20.418ZM570.552 113.087L569.863 111.132L569.174 111.395L569.719 113.087H570.552ZM569.863 58.9789C570.408 58.4247 570.81 58.1622 571.097 58.1622C571.384 58.1622 571.384 58.4247 571.384 58.9789V60.1164C571.241 59.9706 570.581 59.5914 569.863 58.833V58.9789ZM571.93 63.5875L570.007 65.4251L570.408 64.025C570.595 63.7837 570.696 63.4858 570.696 63.1791C570.696 62.8725 570.595 62.5746 570.408 62.3333L571.93 63.5875ZM571.786 11.3174H570.954V9.36311H571.786V11.3174ZM573.422 71.6964C572.504 72.5423 571.872 72.9506 571.499 72.9506C571.499 71.6672 571.729 70.9963 572.188 70.9963C572.522 71.3243 572.959 71.5208 573.422 71.5505V71.6964ZM573.71 17.472L572.475 16.0719C572.016 16.0719 571.786 16.7428 571.786 18.0262C572.101 17.8847 572.399 17.7087 572.676 17.5011C573.01 17.3909 573.358 17.3319 573.71 17.3261V17.472ZM573.308 23.6266L572.734 21.6723L571.93 21.9639L572.619 23.6266H573.308ZM573.021 65.2793H572.188V63.4708H573.021V65.2793ZM575.375 8.75057H574.686L573.997 10.4132L574.686 10.8507L575.375 8.75057ZM576.178 7.90469V7.00046H574.8V7.96302L576.178 7.90469Z" fill="#00554B"/>
<path d="M658.018 89.3142C657.925 89.962 657.69 90.5802 657.329 91.1226C656.948 91.6551 656.756 92.3027 656.784 92.9602C657.25 94.6376 657.435 96.3832 657.329 98.1231C656.896 99.4544 656.532 100.808 656.238 102.178C655.492 107.206 653.605 111.989 650.727 116.149C648.258 119.97 646.277 121.983 644.813 121.983C644.44 121.983 644.268 121.983 644.268 121.983V121.837C644.044 121.762 643.803 121.762 643.579 121.837C644.21 121.837 643.435 122.07 641.254 122.537V123.383C641.082 124.025 640.737 124.346 640.278 124.346C639.819 124.346 639.732 124.346 639.732 124.083C639.732 123.821 639.56 123.791 639.187 123.791C638.602 123.893 638.056 124.155 637.608 124.55C637.128 124.986 636.526 125.261 635.886 125.337H630.374C630.03 125.337 629.886 125.162 629.973 124.842C630.059 124.521 629.972 124.346 629.685 124.346C628.862 124.384 628.062 124.638 627.363 125.083C626.664 125.527 626.089 126.147 625.695 126.883L625.15 126.446C624.77 126.101 624.281 125.905 623.772 125.892C623.407 125.933 623.07 126.109 622.825 126.387C622.565 126.661 622.22 126.836 621.849 126.883C621.63 126.909 621.409 126.867 621.215 126.763C621.02 126.659 620.861 126.498 620.758 126.3L620.471 125.6C618.289 125.6 615.074 125.25 610.855 124.783C608.292 124.085 605.905 122.842 603.85 121.137C596.474 114.512 591.771 105.348 590.646 95.4104C590.032 90.4584 589.84 85.4617 590.072 80.4761L590.646 65.1043C590.646 63.9667 590.445 60.8456 590.072 55.7411L589.526 48.7407C589.546 45.6606 589.728 42.5838 590.072 39.5234C590.276 35.5139 590.833 31.5311 591.737 27.6226C593.386 22.8141 595.748 18.2895 598.741 14.2051C600.406 12.5425 602.616 10.034 605.343 6.67959L620.902 2.50848C622.291 2.67063 623.653 3.02388 624.949 3.55855C626.245 4.09323 627.607 4.44648 628.996 4.60862C629.707 4.48625 630.389 4.22897 631.006 3.85024C631.606 3.45323 632.28 3.18522 632.987 3.06269C634.192 3.06269 634.795 3.73356 634.795 5.04615C637.012 5.38319 639.18 5.99038 641.254 6.8546C645.135 10.1918 648.234 14.3672 650.325 19.0762C652.936 23.5016 654.444 28.5082 654.717 33.6605C654.708 37.6815 654.987 41.6978 655.549 45.678C656.295 51.5117 656.697 55.4786 656.784 57.6954C656.784 60.4081 656.984 70.4713 657.071 87.8849C657.465 88.3026 657.785 88.7861 658.018 89.3142ZM597.908 95.7313H595.985V94.3312H597.908V95.7313ZM598.339 32.698C598.05 32.1337 597.671 31.6214 597.219 31.1812C596.848 31.5665 596.572 32.0366 596.416 32.5521C597.042 32.723 597.695 32.7724 598.339 32.698ZM599.975 44.0154C600.176 44.0154 600.262 44.0154 600.262 43.7529C600.081 43.0805 599.747 42.4609 599.286 41.9444L598.195 43.0528C598.073 42.8763 597.909 42.7333 597.718 42.6367C597.528 42.54 597.317 42.4926 597.105 42.4986C597.211 43.6616 596.971 44.8302 596.416 45.853L596.961 46.2614C597.869 45.4002 598.871 44.6467 599.946 44.0154H599.975ZM598.482 37.7441C597.822 36.519 597.191 35.9065 596.53 35.9065V37.7441H598.482ZM598.052 80.5053L597.794 79.6594L596.53 80.3594V81.0595L598.052 80.5053ZM600.922 45.1529C600.017 45.5856 599.209 46.2023 598.547 46.9649C597.886 47.7274 597.385 48.6197 597.076 49.5866H598.999C599.018 48.7528 599.2 47.9312 599.536 47.1699C599.871 46.4087 600.352 45.7229 600.951 45.1529H600.922ZM598.454 78.4051L598.167 77.7051L597.076 78.2593V78.9593L598.454 78.4051ZM599.257 27.5351V19.1346C599.282 21.3662 598.663 23.5563 597.478 25.435L599.257 27.5351ZM598.856 41.6527V40.836H597.478V41.6819L598.856 41.6527ZM599.401 51.7159C599.114 51.7159 598.741 51.9784 598.224 52.4743C597.707 52.9701 597.478 53.3493 597.478 53.5243C597.65 53.7286 597.86 53.8958 598.097 54.016C598.334 54.1363 598.592 54.2071 598.856 54.2244C598.886 53.7964 598.973 53.3744 599.114 52.9701C599.288 52.573 599.394 52.149 599.43 51.7159H599.401ZM599.803 30.5978V28.0893C598.884 28.0893 598.454 28.4977 598.454 29.3436C598.454 30.1895 598.913 30.5978 599.946 30.5978H599.803ZM600.635 37.5983L599.946 37.3066L598.712 39.6984L599.545 39.9609L600.635 37.5983ZM601.611 24.4724L601.066 23.8891L599.803 25.1433L600.377 25.7267L601.611 24.4724ZM603.391 21.3806C603.369 20.8539 603.272 20.3333 603.104 19.8346C602.967 19.389 602.881 18.9291 602.846 18.4637C601.554 18.4637 600.922 18.8721 600.922 19.7179C601.305 20.028 601.553 20.4785 601.611 20.9722C601.617 21.122 601.566 21.2682 601.468 21.3806H603.391ZM603.678 27.2143L601.726 25.9309L601.324 26.6309L603.104 27.9143L603.678 27.2143ZM604.367 33.048V32.0854H602.013V32.9313L604.367 33.048ZM611.084 105.036C610.74 104.015 610.367 102.878 609.993 101.682H608.07C608.062 102.116 607.964 102.543 607.783 102.936C608.443 103.315 608.558 103.723 608.214 104.19L607.783 104.744L606.405 101.827C607.448 101.428 608.465 100.96 609.448 100.427V98.4731C609.075 98.4731 608.903 97.9772 608.903 96.9563C608.475 96.982 608.046 96.9203 607.642 96.7751C607.237 96.6298 606.866 96.4038 606.549 96.1105C606.549 96.1105 607.094 96.1105 608.472 96.1105C607.716 94.9534 606.74 93.9616 605.601 93.1936V104.657C605.385 105.305 604.998 105.88 604.482 106.319C605.097 106.616 605.604 107.104 605.929 107.712C606.254 108.32 606.38 109.017 606.29 109.703C606.117 110.998 606.069 112.307 606.147 113.612L606.836 113.057C607.185 112.772 607.621 112.617 608.07 112.62C608.616 112.62 608.845 113.291 608.759 114.574C608.718 115.452 608.483 116.31 608.07 117.083H609.448C609.478 116.714 609.478 116.343 609.448 115.974L610.424 115.012C610.338 114.977 610.265 114.916 610.214 114.838C610.163 114.76 610.136 114.668 610.137 114.574C610.28 114.354 610.466 114.165 610.682 114.02C610.393 113.56 610.253 113.019 610.28 112.474C610.304 112.002 610.371 111.533 610.481 111.074C610.593 110.625 610.661 110.166 610.682 109.703C610.71 109.427 610.66 109.149 610.538 108.901C610.416 108.653 610.227 108.446 609.993 108.303C609.545 107.786 609.256 107.147 609.161 106.465C609.161 106.115 609.505 105.765 610.137 105.415C610.477 105.247 610.803 105.052 611.113 104.832L611.084 105.036ZM605.86 80.3011H604.625V79.4552H605.86V80.3011ZM606.003 84.9097L605.601 84.0638L604.769 84.4722L605.171 85.3181L606.003 84.9097ZM607.525 89.11C607.525 88.6433 606.692 87.7099 605.056 86.1931V87.8557L605.601 88.7016C606.046 89.6599 606.282 90.7048 606.29 91.7643C606.352 91.2565 606.562 90.7791 606.893 90.3934C607.265 89.9826 607.496 89.4609 607.553 88.9058L607.525 89.11ZM607.238 114.545H606.405L605.86 116.208L606.549 116.499L607.238 114.545ZM611.084 28.9936L608.759 28.2935L608.357 29.1394C607.787 29.384 607.164 29.4744 606.549 29.4019C606.586 29.7472 606.683 30.0831 606.836 30.3936C606.972 30.7085 607.06 31.0431 607.094 31.3854C608.708 31.0662 610.144 30.1389 611.113 28.7894L611.084 28.9936ZM616.596 13.7676C615.424 13.5944 614.271 13.3112 613.151 12.9217C613.151 13.3884 612.692 14.0884 611.773 15.0218C611.142 13.7092 610.596 13.0675 610.137 13.0675C609.936 14.7301 609.534 16.9761 608.903 19.7763C608.272 20.0408 607.667 20.363 607.094 20.7388V23.1307C607.632 22.3317 608.338 21.6642 609.161 21.1764L609.592 21.4389V24.9391C608.673 25.8725 608.156 26.2809 608.07 26.1934C608.494 26.4034 608.89 26.6681 609.247 26.9809C609.736 27.3992 610.335 27.6628 610.969 27.7393C611.483 24.5443 611.8 21.3197 611.917 18.0845L613.438 19.6304C613.349 18.2891 613.648 16.9506 614.299 15.7802C614.873 16.4511 615.218 16.7719 615.419 16.7719C615.092 16.2676 614.903 15.6834 614.873 15.0801C614.988 14.2634 615.534 13.7384 616.624 13.5634L616.596 13.7676ZM609.19 110.841L608.501 112.241L607.812 111.949L608.501 110.549L609.19 110.841ZM636.288 93.5145V49.3241C635.789 48.2009 635.377 47.0405 635.053 45.853C635.053 42.7611 635.053 39.6401 635.053 36.4899C634.77 33.3744 633.346 30.4804 631.063 28.381C628.77 25.7904 625.56 24.2278 622.136 24.0349C621.39 24.0349 620.902 24.5599 620.614 25.5808C620.421 25.3182 620.258 25.0345 620.126 24.7349C619.897 24.2682 619.696 24.0349 619.524 24.0349C618.498 24.9379 617.263 25.5603 615.935 25.8433C615.367 26.9103 614.51 27.7906 613.467 28.381C611.63 29.4894 610.596 32.8438 610.309 38.4442C610.108 41.9736 609.993 45.9405 609.879 50.3158C609.388 54.0672 609.158 57.849 609.19 61.6332C608.943 71.4653 609.684 81.2973 611.4 90.9768C611.4 91.2685 611.773 92.9019 612.232 95.8771C612.84 97.938 613.867 99.846 615.247 101.477C616.399 103.261 618.077 104.629 620.04 105.386C621.733 105.477 623.429 105.477 625.121 105.386C626.611 105.458 628.099 105.201 629.482 104.632C630.865 104.063 632.11 103.196 633.13 102.09C635.226 99.7488 636.357 96.6787 636.288 93.5145ZM614.701 21.3806L612.634 20.8264V21.5264L614.414 22.0806L614.701 21.3806ZM621.705 113.349C620.285 112.903 618.798 112.716 617.313 112.795V114.749L618.289 113.757C618.289 114.341 618.835 115.158 619.926 116.295C620.39 115.239 620.989 114.248 621.705 113.349ZM624.203 14.1759C624.144 13.5284 623.949 12.9014 623.629 12.3383C623.059 11.8531 622.407 11.4775 621.705 11.2299C621.746 11.5104 621.746 11.7953 621.705 12.0758C621.646 12.6506 621.47 13.2068 621.189 13.7089C620.907 14.211 620.526 14.6482 620.069 14.9926C620.757 15.2203 621.405 15.5549 621.992 15.9844V16.3927C621.773 16.6063 621.617 16.8777 621.541 17.1765C621.465 17.4753 621.472 17.7897 621.562 18.0845C621.753 18.6247 621.897 19.1811 621.992 19.7471C623.047 18.0688 623.796 16.2113 624.203 14.2634V14.1759ZM625.552 124.579V123.762H624.317V124.579H625.552ZM625.781 15.926L624.949 15.226L624.547 15.6635L625.236 16.4802L625.781 15.926ZM626.614 15.226V11.6674C625.609 11.6674 625.15 12.1633 625.236 13.0675V15.1676L626.614 15.226ZM631.982 115.449C631.322 115.449 631.006 115.041 631.006 114.195C630.001 115.303 629.628 116.149 629.915 116.703C630.163 117.095 630.441 117.465 630.748 117.812C630.669 117.31 630.76 116.796 631.006 116.353C631.35 115.741 631.666 115.449 632.039 115.449H631.982ZM635.685 107.749C634.852 107.749 634.451 107.428 634.451 106.786C634.278 106.786 633.675 107.311 632.671 108.332C633.041 109.17 633.504 109.962 634.049 110.695C634.479 109.639 635.049 108.648 635.742 107.749H635.685ZM635.427 114.749L633.618 113.495L633.073 114.195L634.852 115.449L635.427 114.749ZM640.766 18.8721C640.766 17.1803 640.45 16.1302 639.818 15.6635C637.981 14.9051 636.144 14.1176 634.307 13.2717V14.8176C634.307 15.4593 634.537 15.7802 634.996 15.7802C634.623 15.7802 634.049 16.2177 633.216 17.0636C633.852 17.648 634.363 18.3584 634.718 19.1509C635.074 19.9434 635.266 20.8015 635.283 21.6722C635.206 22.2894 635.061 22.8959 634.852 23.4807C634.696 23.9838 634.696 24.5236 634.852 25.0266C636.316 23.4224 637.063 22.4015 637.063 21.9348C636.907 21.2693 636.568 20.6625 636.087 20.1846C635.618 19.7131 635.289 19.1166 635.139 18.4637C635.182 17.8602 635.35 17.2727 635.632 16.7398C635.914 16.2069 636.304 15.7407 636.776 15.3718L637.608 16.2177C637.247 18.9772 637.935 21.7728 639.531 24.0349C639.58 23.1083 639.764 22.1941 640.077 21.3222C640.436 20.5444 640.687 19.7199 640.823 18.8721H640.766ZM640.077 27.6226C640.433 27.3391 640.677 26.9356 640.766 26.4851C640.766 26.31 640.421 26.135 639.675 26.0184C639.184 25.9628 638.713 25.7931 638.297 25.5225C638 25.3385 637.682 25.1916 637.35 25.085L640.077 27.6226ZM652.88 96.5188C652.344 95.7993 651.569 94.827 650.554 93.602C650.405 94.2446 650.032 94.8108 649.505 95.1966C648.978 95.5825 648.331 95.7619 647.684 95.7021C648.028 95.4396 647.081 95.2354 644.813 95.1479C645.081 95.7296 645.429 96.2697 645.847 96.7522C646.27 97.2038 646.575 97.755 646.737 98.3564C646.668 98.8884 646.425 99.3816 646.048 99.7565C645.961 99.5724 645.902 99.3756 645.875 99.1732C645.875 98.7065 645.674 98.4731 645.273 98.4731C644.987 98.4848 644.712 98.5865 644.485 98.7642C644.259 98.9419 644.093 99.1868 644.01 99.4648L643.206 98.619C643.5 97.5228 643.683 96.3987 643.751 95.2646C643.761 94.9756 643.712 94.6876 643.608 94.4187C643.111 94.5056 642.64 94.705 642.23 95.002C642.089 96.117 641.769 97.201 641.282 98.2106V102.411C641.814 102.416 642.339 102.291 642.813 102.047C643.288 101.804 643.698 101.448 644.01 101.011L645.273 102.265C644.985 102.644 644.756 102.761 644.555 102.673C645.304 103.7 645.778 104.906 645.933 106.174C644.383 105.794 643.608 105.299 643.608 104.628C643.126 104.9 642.616 105.116 642.086 105.269C641.168 105.581 640.708 105.931 640.708 106.319L641.139 107.019C641.139 107.019 641.684 108.361 642.517 110.782C643.059 110.085 643.654 109.431 644.297 108.828C643.464 108.828 643.062 108.536 643.062 108.274C643.092 108.006 643.214 107.758 643.407 107.574C643.636 107.282 643.751 107.107 643.751 107.019L644.44 107.282C644.849 107.558 645.327 107.71 645.818 107.72C646.737 107.72 647.54 106.669 648.287 104.628C647.587 104.689 646.883 104.599 646.22 104.365C646.507 104.073 646.966 103.665 647.598 103.111C648.52 103.427 649.362 103.945 650.066 104.628L651.301 103.373C651.117 102.839 651.03 102.276 651.042 101.711C651.079 100.466 651.312 99.2349 651.731 98.0647C651.331 98.1084 650.948 98.2484 650.612 98.4731C650.487 98.375 650.385 98.2491 650.316 98.1049C650.246 97.9608 650.21 97.8024 650.21 97.6418C650.21 97.4812 650.246 97.3228 650.316 97.1787C650.385 97.0346 650.487 96.9086 650.612 96.8105C651.394 96.8369 652.175 96.7584 652.937 96.5772L652.88 96.5188ZM646.88 21.6722C646.985 20.7544 646.749 19.8296 646.218 19.0795C645.687 18.3294 644.899 17.808 644.01 17.6178C644.354 17.2386 643.55 17.0053 641.541 16.9178V18.8721C642.804 18.8721 644.153 20.068 645.531 22.7806L643.579 23.3348C643.519 23.7605 643.519 24.1926 643.579 24.6183C644.073 24.9941 644.479 25.477 644.767 26.032C645.055 26.5869 645.218 27.2 645.244 27.8268C645.909 25.8102 646.456 23.755 646.88 21.6722ZM647.167 87.3599C646.88 87.3599 646.737 86.9224 646.737 86.1056C645.273 86.7473 644.555 87.3891 644.555 88.0599C645.371 87.6693 646.266 87.4794 647.167 87.5057V87.3599ZM647.856 93.6311C647.969 93.3671 648.007 93.0763 647.967 92.7914C647.926 92.5065 647.807 92.2388 647.625 92.0186C647.442 91.7983 647.203 91.6342 646.934 91.5448C646.664 91.4553 646.376 91.4441 646.101 91.5123C645.825 91.5805 645.574 91.7255 645.376 91.9309C645.177 92.1363 645.039 92.394 644.977 92.6749C644.915 92.9558 644.931 93.2487 645.024 93.5208C645.116 93.7928 645.282 94.033 645.502 94.2145C645.906 94.1749 646.303 94.0767 646.679 93.9228C647.056 93.769 647.452 93.6707 647.856 93.6311ZM647.569 91.1226V89.1683H646.737V91.1226H647.569ZM649.923 24.7349C649.923 23.2473 649.09 22.489 647.425 22.489V28.4977C648.086 28.9936 648.717 29.4894 649.349 30.0436C649.127 29.0844 649.127 28.086 649.349 27.1268C649.604 26.3467 649.796 25.5467 649.923 24.7349ZM651.416 87.5057C651.195 87.4601 650.995 87.3404 650.85 87.1658C650.704 86.9912 650.62 86.7719 650.612 86.5432V85.2889C649.952 84.3555 649.636 83.9763 649.636 84.1513C649.561 84.61 649.339 85.0306 649.004 85.3472C648.666 85.7165 648.454 86.1873 648.401 86.689C648.401 87.5057 648.66 87.8849 649.234 87.7974C649.117 89.4774 649.117 91.1636 649.234 92.8436C649.153 93.0423 649.111 93.2554 649.111 93.4707C649.111 93.6859 649.153 93.8991 649.234 94.0978C650.784 92.4935 651.559 91.4727 651.559 91.006C651.535 90.7333 651.456 90.4685 651.328 90.2277C651.2 89.987 651.024 89.7754 650.813 89.6059C650.296 89.1392 650.066 88.7891 650.066 88.4975C650.087 88.1303 650.228 87.7809 650.468 87.5057H651.416Z" fill="#00554B"/>
<path d="M731.992 84.0055C731.654 84.0516 731.331 84.1753 731.048 84.3674C730.764 84.5595 730.528 84.8148 730.356 85.1139C730.356 98.4342 728.203 108.497 723.897 115.303C721.623 117.807 718.855 119.795 715.773 121.137C712.887 123.004 709.652 124.245 706.272 124.783C704.614 124.837 702.964 125.022 701.335 125.337C699.696 125.653 698.035 125.838 696.368 125.892C690.627 125.892 683.02 122.975 673.691 117.374C672.399 114.953 670.562 111.22 668.18 106.203C666.618 102.057 665.914 97.6283 666.113 93.1936C666.113 91.6185 666.113 89.2267 665.912 85.989C665.711 82.7513 665.711 80.3011 665.711 78.5802C665.711 76.8592 665.711 74.1757 665.424 70.5588C665.137 66.9419 665.137 64.2292 665.137 62.4499C665.137 56.3829 665.137 51.5992 664.878 48.0406C663.96 43.4028 663.501 41.1569 663.501 41.3319C663.571 40.8725 663.759 40.44 664.046 40.0776C664.358 39.6751 664.548 39.1883 664.591 38.6775L665.567 24.8516C665.568 22.37 665.249 19.899 664.62 17.5011C664.031 15.1603 663.666 12.7671 663.529 10.3548C663.569 9.49055 663.684 8.63155 663.874 7.78801C664.064 6.93471 664.179 6.06598 664.218 5.19201C665.191 4.25685 666.248 3.41696 667.376 2.68351C670.997 1.38893 674.82 0.776093 678.657 0.875057C679.783 1.23767 680.934 1.51074 682.102 1.69178C683.738 3.00436 684.57 4.17111 684.57 5.19201C684.57 15.5371 684.896 30.6367 685.546 50.4908C685.546 52.2409 685.776 55.8287 685.948 61.254C685.948 63.9375 685.948 67.5836 685.661 72.1339C685.403 77.4426 685.259 81.147 685.259 83.1888C685.05 89.1862 686.127 95.1581 688.417 100.69C689.256 102.169 690.531 103.342 692.063 104.044C693.546 104.941 695.22 105.461 696.943 105.561H699.555C705.066 105.561 708.597 102.022 710.147 94.9437C710.924 90.5662 711.251 86.1183 711.123 81.672C711.123 80.8359 710.798 72.3089 710.147 56.0912C710.119 55.1068 709.984 54.1286 709.745 53.1743C709.506 52.22 709.371 51.2418 709.343 50.2575C709.343 47.924 709.343 44.4237 709.343 39.6984C709.343 34.9731 709.343 31.4729 709.343 29.1394C709.343 26.2226 709.085 21.5556 708.54 15.0218L707.707 5.25034C707.707 4.87115 708.138 4.22944 708.999 3.29605C709.573 2.75948 710.066 2.14036 710.463 1.45843C713.492 1.51508 716.522 1.37869 719.534 1.05007C720.924 0.795308 722.296 0.44447 723.639 0C724.487 0.127755 725.316 0.362932 726.107 0.700046C726.844 1.45372 727.631 2.15539 728.461 2.80018C729.318 3.5542 729.896 4.58348 730.097 5.71704C729.448 13.5741 729.218 21.4612 729.409 29.3436C729.409 29.5186 729.609 33.4855 729.954 41.2152C730.241 47.924 730.385 54.2827 730.385 60.2331V82.1679C731.217 83.4513 731.762 84.0055 731.992 84.0055ZM669.586 25.2892V24.4724H667.663V25.2892H669.586ZM682.102 13.8259C680.638 13.5634 679.748 14.2634 679.49 15.926C679.194 15.4953 678.847 15.1034 678.456 14.7593C678.183 14.495 677.964 14.1787 677.811 13.8284C677.659 13.478 677.575 13.1005 677.566 12.7175C677.578 11.962 677.665 11.2095 677.825 10.4715L674.954 11.7258C674.323 12.3966 673.375 13.5634 672.084 15.226C672.296 16.5517 671.998 17.9098 671.251 19.0179C670.849 17.7748 670.194 16.6318 669.328 15.6635C669.505 15.1171 669.602 14.547 669.615 13.9717C669.6 13.2507 669.454 12.5386 669.184 11.8716C668.891 12.561 668.525 13.2162 668.093 13.8259C668.211 12.3019 668.529 10.8008 669.041 9.36311C670.483 9.51247 671.816 10.2106 672.772 11.3174C673.832 11.2271 674.875 10.9916 675.873 10.6174C676.945 10.2075 678.087 10.0191 679.231 10.0632L681.442 8.80891C681.442 7.9533 681.528 8.5075 681.7 10.4715C682.016 12.4258 682.102 13.5634 682.102 13.8259ZM669.73 30.5978C669.517 30.1007 669.181 29.6685 668.754 29.3436L668.208 33.398C668.916 32.5928 669.436 31.6357 669.73 30.5978ZM669.299 28.2352V26.8351H668.352V28.2352H669.299ZM671.108 68.7795C671.022 68.275 670.826 67.7964 670.533 67.3794C669.979 67.4599 669.461 67.7032 669.041 68.0795C669.624 68.5592 670.358 68.8079 671.108 68.7795ZM677.136 95.0312C676.814 94.0751 676.545 93.1013 676.332 92.1144C676.274 92.4928 676.178 92.8643 676.045 93.2228C675.689 93.7608 675.222 94.2141 674.677 94.5515C674.132 94.8888 673.521 95.1023 672.887 95.1771C672.055 95.1771 671.768 95.1771 672.055 94.9146C672.848 94.1509 673.321 93.1063 673.375 91.9977C673.457 91.2072 673.611 90.426 673.835 89.6642L674.667 89.2559C673.289 89.2559 672.6 88.8767 672.6 88.1474C672.6 87.4182 672.6 86.339 672.801 84.9972C673.002 83.6555 673.031 82.6054 673.031 81.847C672.362 81.945 671.681 81.8004 671.108 81.4387V80.1844C672.457 79.426 673.146 78.6385 673.146 77.7926C671.768 77.1509 671.108 76.7425 671.108 76.5384C672.112 75.5175 672.6 74.9049 672.6 74.7299C671.659 74.2326 670.896 73.4468 670.419 72.4839C670.056 73.4813 669.634 74.4554 669.156 75.4008C669.156 80.2428 669.156 84.1514 669.156 86.864C669.276 88.8706 669.19 90.8845 668.897 92.8728C669.599 94.5527 669.97 96.3564 669.988 98.1814C670.213 98.4275 670.49 98.6184 670.799 98.7397C671.107 98.861 671.438 98.9095 671.768 98.8815C671.969 98.8815 672.514 98.4148 673.433 97.4814C672.428 97.4814 671.911 97.1897 671.911 96.6355C672.582 96.3831 673.211 96.0291 673.777 95.5854C674.349 95.1148 675.032 94.8032 675.758 94.6812C676.734 94.477 677.136 94.6812 677.136 95.0312ZM671.108 26.6892L670.82 25.9892L669.73 26.6892V27.3893L671.108 26.6892ZM672.744 21.9348L672.198 21.3806L670.964 22.6348L671.509 23.189L672.744 21.9348ZM673.72 100.69C673.978 100.223 673.72 99.5815 672.744 98.7356V101.244C672.938 101.212 673.124 101.142 673.292 101.037C673.459 100.932 673.605 100.794 673.72 100.632V100.69ZM674.811 81.672V79.7177H673.978V81.672H674.811ZM679.748 89.5184L679.49 88.8183L678.255 89.3725V90.0726L679.748 89.5184ZM684.312 111.307C683.566 109.81 682.609 107.865 681.442 105.474C680.82 106.128 679.981 106.524 679.088 106.582C680.006 106.971 680.466 107.438 680.466 107.982C680.293 109.674 680.207 110.316 680.207 109.936C680.784 110.01 681.366 109.865 681.843 109.528L682.676 110.228L680.609 112.474C681.276 112.536 681.948 112.459 682.584 112.248C683.221 112.038 683.809 111.698 684.312 111.249V111.307ZM680.322 19.9805V18.0262H679.375V19.9805H680.322ZM683.193 96.023V93.1061C682.822 92.7703 682.522 92.3623 682.31 91.9063C682.098 91.4503 681.978 90.9557 681.958 90.4518C681.826 89.7253 681.969 88.9747 682.36 88.3516C682.224 88.1408 682.135 87.9016 682.102 87.6516C682.146 87.2835 682.146 86.9113 682.102 86.5432C682.075 85.8867 681.998 85.2333 681.872 84.5889C681.767 83.9421 681.7 83.2895 681.671 82.6346C681.623 82.0676 681.725 81.4978 681.968 80.9847C682.21 80.4717 682.583 80.0341 683.049 79.7177H680.178C680.178 83.0721 680.351 87.5349 680.724 93.1353L680.178 95.3813C680.685 95.4064 681.186 95.4946 681.671 95.6438C682.158 95.8435 682.67 95.9712 683.193 96.023ZM684.169 104.278V99.1732C683.627 98.421 683.022 97.7183 682.36 97.073C682.402 97.4843 682.551 97.8769 682.791 98.2106C682.082 98.6904 681.49 99.3291 681.062 100.077C680.634 100.826 680.381 101.664 680.322 102.528L682.245 103.519C682.831 103.897 683.485 104.155 684.169 104.278ZM681.958 103.986L681.126 103.694L680.58 105.094L681.269 105.386L681.958 103.986ZM695.163 117.404C694.79 117.404 694.474 117.024 694.187 116.295C694.304 115.083 694.304 113.861 694.187 112.649C694.045 111.58 693.517 110.602 692.705 109.907C691.893 109.211 690.856 108.848 689.795 108.886C689.473 108.868 689.15 108.918 688.848 109.032C689.831 111.437 690.478 113.97 690.771 116.558C691.273 115.826 691.872 115.168 692.551 114.603C692.865 115.167 693.051 115.795 693.096 116.441C693.099 116.78 693.009 117.113 692.838 117.404H695.163ZM706.989 116.003V110.841C706.876 109.959 706.435 109.155 705.755 108.595C705.399 109.315 704.934 109.974 704.377 110.549C703.746 109.907 703.459 109.586 703.545 109.586V111.686C703.262 111.616 703.001 111.475 702.786 111.276C702.57 111.078 702.407 110.828 702.311 110.549C702.104 110.243 701.922 109.921 701.765 109.586C701.411 109.953 701.016 110.276 700.588 110.549C700.179 110.846 699.795 111.178 699.44 111.541C700.01 111.662 700.531 111.957 700.933 112.387L699.985 113.495C700.524 113.445 701.063 113.589 701.507 113.903C700.473 114.487 699.985 114.895 699.985 115.187C701.162 115.741 701.679 116.441 701.507 117.258H703.286C703.721 116.441 703.957 115.531 703.975 114.603C704.005 113.753 704.14 112.911 704.377 112.095C704.774 112.374 705.095 112.75 705.311 113.188C705.526 113.627 705.63 114.114 705.612 114.603C705.698 115.042 705.694 115.493 705.6 115.93C705.507 116.367 705.325 116.779 705.066 117.141C705.445 117.091 705.81 116.965 706.141 116.769C706.471 116.574 706.76 116.314 706.989 116.003ZM721.715 64.9876C721.438 64.5773 721.11 64.2048 720.739 63.8792C720.739 63.325 720.739 62.2457 720.739 60.6706C720.94 56.9371 720.51 54.8369 719.505 54.5161C719.639 53.8226 719.639 53.1094 719.505 52.4159C718.587 52.5909 718.213 53.0576 718.414 53.816C718.587 55.2161 718.673 55.7703 718.673 55.4786C718.395 55.4607 718.122 55.3915 717.869 55.2745C717.605 55.1593 717.323 55.0903 717.036 55.0703C717.036 53.6702 716.749 52.9701 716.204 52.9701L715.659 55.887C716.199 55.8171 716.744 55.9636 717.18 56.2954C716.747 56.8342 716.287 57.3502 715.802 57.8413C715.865 59.0835 715.769 60.3289 715.515 61.5457C715.308 62.6731 715.174 63.8132 715.113 64.9584C715.136 65.6169 715.223 66.2715 715.372 66.9127C715.531 67.5132 715.627 68.1292 715.659 68.7503L716.893 68.3128C717.266 68.3128 717.438 68.3128 717.438 68.4587C717.311 68.6914 717.122 68.8834 716.893 69.0129C716.098 71.8573 715.73 74.8074 715.802 77.7634C715.802 78.901 715.802 80.5053 715.802 82.5762C715.802 84.6472 715.802 86.3098 715.802 87.4182C715.845 89.7229 715.613 92.0245 715.113 94.2728C715.808 96.0403 716.006 97.9688 715.687 99.844C714.941 100.777 713.649 102.236 711.812 104.19C712.292 104.293 712.731 104.536 713.075 104.89C713.685 104.087 714.563 103.537 715.544 103.344C716.376 103.344 716.635 103.49 716.376 103.753C716.292 104.337 716.127 104.906 715.888 105.444C715.617 106.005 715.498 106.63 715.544 107.253C715.869 107.35 716.153 107.555 716.351 107.835C716.548 108.115 716.648 108.454 716.635 108.799C716.645 109.174 716.597 109.548 716.491 109.907C716.792 109.574 717.156 109.305 717.559 109.115C717.963 108.925 718.4 108.817 718.845 108.799C718.535 108.487 718.3 108.108 718.156 107.69C718.988 102.644 719.39 100.602 719.39 101.536C719.399 99.5984 718.977 97.684 718.156 95.9355C718.484 95.5563 718.884 95.2487 719.333 95.0312C720.022 94.6229 720.366 94.2145 720.366 93.8353V85.4056H719.792C718.742 84.5254 718.055 83.276 717.869 81.9054C717.869 81.3609 718.558 80.6608 719.936 79.8052C719.142 79.522 718.374 79.1707 717.639 78.7552C718.09 77.5649 718.688 76.4378 719.419 75.4008C719.704 76.3959 719.849 77.427 719.85 78.4635C720.309 78.0843 720.539 77.2092 720.539 75.8091V73.1548C721.314 67.3794 721.715 64.6084 721.715 64.9876ZM716.635 11.3174C716.635 10.6757 715.601 10.3548 713.592 10.3548C712.96 10.3548 712.587 10.5882 712.501 11.0549C712.415 11.5216 712.501 11.7258 713.046 11.7258C714.051 12.7758 714.683 13.2717 714.97 13.2717C716.06 12.1633 716.635 11.6674 716.635 11.3174ZM715.515 114.458C714.874 112.195 714.688 109.824 714.97 107.486H713.046C713.592 108.204 713.885 109.087 713.879 109.995C713.842 110.84 713.727 111.68 713.534 112.503C713.342 113.336 713.227 114.186 713.19 115.041C713.593 114.998 713.989 114.9 714.367 114.749C714.734 114.596 715.12 114.498 715.515 114.458ZM717.324 112.941L716.635 110.986L715.946 111.249L716.491 112.941H717.324ZM716.635 58.833C717.18 58.2788 717.582 58.0163 717.869 58.0163C718.156 58.0163 718.127 58.2788 718.127 58.833V59.9706C717.869 59.9706 717.352 59.5914 716.635 58.833ZM718.673 63.4417L716.749 65.2793L717.18 63.8792C717.349 63.6306 717.44 63.3355 717.44 63.0333C717.44 62.7311 717.349 62.436 717.18 62.1874L718.673 63.4417ZM719.362 8.02136L718.673 7.46716L717.438 9.27561L718.127 9.82981L719.362 8.02136ZM723.237 8.86725C722.058 8.59314 720.905 8.21243 719.792 7.72967C719.87 7.95556 719.918 8.19096 719.936 8.42972C719.936 9.36311 719.189 10.1507 717.725 10.8215V16.9178C718.091 16.7569 718.409 16.5035 718.65 16.1818C718.892 15.86 719.048 15.4807 719.103 15.0802C719.255 14.3506 719.341 13.6087 719.362 12.8633C719.779 13.3118 720.303 13.6434 720.883 13.8259C721.256 13.8259 721.859 13.4175 722.663 12.5717C722.431 12.2584 722.284 11.8882 722.239 11.4987C722.194 11.1093 722.251 10.7145 722.404 10.3548C722.546 9.78036 722.894 9.28069 723.38 8.95475L723.237 8.86725ZM720.194 23.9474L718.271 22.9848L717.725 23.9474H720.194ZM719.362 20.418L718.558 20.1263L717.984 21.5264L718.673 21.8181L719.362 20.418ZM720.194 71.6964C719.275 72.5423 718.644 72.9506 718.271 72.9506C718.271 71.6672 718.5 70.9963 718.96 70.9963C719.289 71.3311 719.729 71.5287 720.194 71.5505V71.6964ZM719.792 65.2793H718.96V63.4708H719.792V65.2793ZM721.314 11.3174V9.36311H720.51V11.1716L721.314 11.3174ZM723.38 17.3261L722.117 15.926C721.658 15.926 721.457 16.5969 721.457 17.8803L722.347 17.6178C722.672 17.4609 723.022 17.3622 723.38 17.3261ZM722.95 23.4807L722.404 21.5264L721.572 21.8181L722.261 23.4807H722.95ZM725.017 8.89642H724.328L723.639 10.559L724.328 10.9966L725.017 8.89642ZM725.849 8.05053V7.00046H724.471V7.96302L725.849 8.05053Z" fill="#00554B"/>
<path d="M807 119.358C806.855 121.017 806.281 122.607 805.335 123.966L796.264 124.667L790.207 125.104C788.198 125.104 786.676 123.471 785.672 120.204C785.212 117.87 784.724 115.537 784.15 113.203C783.059 110.695 781.739 107.37 780.16 103.286L776.859 85.9598C776.138 83.7045 775.072 81.5785 773.701 79.6594C773.177 80.4088 772.851 81.2827 772.754 82.197C772.678 83.1303 772.534 84.0565 772.323 84.9681L763.712 111.949C763.105 114.157 762.328 116.312 761.387 118.395C760.422 120.166 759.55 121.986 758.774 123.85C758.028 125.512 756.306 126.358 753.55 126.358C751.376 126.279 749.214 125.996 747.091 125.512C744.998 125.024 742.88 124.654 740.747 124.404C740.479 123.901 740.107 123.463 739.656 123.121C742.15 113.236 745.178 103.498 748.727 93.952C753.78 79.99 756.851 70.763 757.942 66.271C756.851 61.7207 753.416 51.8909 747.637 36.7816C743.532 26.7547 740.174 16.4293 737.59 5.89205C737.983 5.44999 738.347 4.98229 738.68 4.49195C742.355 4.22944 746.574 4.08359 751.34 4.08359C754.21 4.08359 755.961 4.92948 756.708 6.59209C761.109 17.0344 764.64 26.2614 767.3 34.2731C767.587 35.0023 768.907 37.8025 771.29 42.6445C771.995 44.0203 772.821 45.3285 773.759 46.553C774.693 44.9399 775.518 43.2637 776.227 41.536C776.687 39.0276 777.806 34.2147 779.528 27.1268C779.816 26.1059 780.677 22.8098 782.141 17.2095C782.514 15.6344 783.26 12.7758 784.437 8.69223C785.614 4.60863 787.308 2.53766 789.575 2.53766C790.121 2.53766 792.159 2.53766 795.632 2.94602L804.703 3.64606C805.65 5.0161 806.225 6.61595 806.368 8.28387C804.544 17.0691 802.244 25.7453 799.479 34.2731C795.077 49.4796 792.207 58.7455 790.867 62.0707C792.149 65.1626 795.221 75.5077 800.082 93.1061C804.694 109.966 807 118.716 807 119.358ZM748.268 118.949V117.695H746.345V118.949H748.268ZM752.804 104.365H751.684L750.737 106.203L751.828 106.611L752.804 104.365ZM755.416 120.875V117.374H754.325C754.27 117.839 754.27 118.309 754.325 118.774C754.271 119.2 754.346 119.632 754.541 120.013C754.736 120.394 755.042 120.705 755.416 120.904V120.875ZM756.794 44.1321V40.6318C756.398 40.807 756.066 41.1038 755.845 41.4804C755.623 41.8571 755.523 42.2948 755.559 42.732C755.517 43.1977 755.517 43.6664 755.559 44.1321H756.794ZM758.717 52.6493L757.827 50.4616L756.736 50.87L757.684 52.6784L758.717 52.6493ZM763.568 41.6527V40.3985H761.616V41.6527H763.568ZM772.639 51.4242C772.031 51.582 771.463 51.8705 770.974 52.2701C770.494 52.6675 769.937 52.9559 769.338 53.116C770.802 53.116 771.52 53.991 771.52 55.7703L772.639 51.4242ZM778.122 60.1748L777.175 57.958L776.199 58.3663L777.031 60.1748H778.122ZM780.189 67.3211H779.098L778.265 69.1295L779.385 69.5379L780.189 67.3211ZM788.599 101.127L787.48 96.6647C787.48 98.4439 786.762 99.319 785.298 99.319C785.904 99.49 786.464 99.7993 786.935 100.223C787.396 100.673 787.957 101.003 788.571 101.186L788.599 101.127ZM790.925 43.957L789.834 43.5487L788.858 45.503L789.977 45.9113L790.925 43.957ZM792.991 83.6555L791.987 81.672L790.896 82.2554L791.872 84.2097L792.991 83.6555ZM794.628 13.9134V8.75057H793.278V13.9717L794.628 13.9134ZM795.317 118.745V113.757H794.082V118.804L795.317 118.745Z" fill="#00554B"/>
</svg>
