<svg width="143" height="194" viewBox="0 0 143 194" fill="none" xmlns="http://www.w3.org/2000/svg">
<g id="Navet">
<g id="Calque 1">
<path id="Vector" d="M128.132 83.1738C128.177 79.7815 126.897 76.5028 124.564 74.0305C121.547 70.6308 117.351 68.4981 112.822 68.0635C109.278 67.928 105.734 68.3253 102.31 69.2418L87.2463 72.3463C82.3682 73.3828 77.0969 74.6809 74.0295 78.5785C79.9133 70.7543 86.7457 62.3107 96.4604 60.8797C96.973 60.8517 97.4697 60.6931 97.903 60.4193C98.6855 59.8438 98.6749 58.7248 98.8828 57.764C99.6612 54.268 103.888 52.8095 107.464 52.6983C111.041 52.5872 114.961 53.095 117.997 51.1646C119.223 50.2942 120.308 49.2415 121.214 48.043C122.638 46.3585 124.041 44.6861 125.449 42.9975C127.048 41.0993 128.793 38.6886 128.16 36.348C127.882 35.1959 127.094 34.2242 126.763 33.0761C126.551 31.4139 126.655 29.7272 127.07 28.1043C127.379 26.0581 126.933 23.9683 125.814 22.2233C125.227 21.3723 124.416 20.6993 123.47 20.2789C122.524 19.8585 121.48 19.707 120.454 19.8412C118.449 20.2112 116.908 21.8146 115.088 22.7466C111.424 24.639 106.69 23.6683 103.184 25.8236C102.279 26.4028 101.513 27.1197 100.601 27.6624C99.267 28.3046 97.8658 28.7978 96.423 29.1332C90.6632 31.2821 85.8952 35.462 83.0203 40.8829C80.1964 46.2726 78.0435 51.9871 76.6096 57.8994C78.5549 51.1428 78.7428 44.1146 79.6353 37.1611C80.5278 30.2075 82.1528 23.6964 82.1463 16.6192C82.3166 14.7493 81.8481 12.8761 80.817 11.3035C79.9936 10.424 78.9977 9.72267 77.8914 9.24322C74.9123 7.80487 71.3781 6.4498 68.391 7.91179C65.0756 9.51425 64.1544 13.7127 63.6068 17.3185C63.1925 19.5593 63.6422 21.8746 64.8656 23.8014C73.8465 40.7157 72.9106 61.569 65.9722 79.3799C64.0846 75.1657 61.6526 71.2152 58.7381 67.6289C55.7736 64.0242 51.5145 61.7172 46.8712 61.2011C42.2623 60.8973 37.3213 63.4808 35.8248 67.8433C35.6716 68.1672 35.5977 68.5229 35.6092 68.881C35.6207 69.2392 35.7172 69.5897 35.8908 69.9036C36.3746 70.3024 36.961 70.5574 37.5829 70.6395C41.7652 71.8833 43.6011 77.0348 47.5557 78.9081C49.3395 79.5329 51.1628 80.0386 53.0136 80.4221C54.7639 81.0408 56.3296 82.0907 57.5648 83.4742C58.8001 84.8578 59.6649 86.5299 60.0788 88.3351C61.0531 92.5995 59.3459 96.9776 57.4126 100.886C55.8403 104.1 54.0764 107.216 52.1303 110.219C52.9563 110.427 53.701 110.821 54.5349 111.135C55.6066 111.568 56.6218 112.13 57.5583 112.807C57.9109 113.051 58.2462 113.32 58.5617 113.61C59.9288 112.014 61.1784 110.543 62.148 109.362C66.4891 104.172 69.5339 90.1188 69.5339 90.1188C74.1498 91.283 78.6403 89.3244 83.392 88.857C88.5894 88.3303 93.8269 88.0541 99.1005 88.0447C102.747 87.8903 106.399 88.2335 109.954 89.0648C114.23 90.1433 118.702 92.5593 122.848 91.0117C124.384 90.3402 125.696 89.2469 126.632 87.8591C127.567 86.4714 128.088 84.8465 128.132 83.1738ZM61.8614 82.0869C60.9409 82.868 58.998 78.9604 58.3956 78.1387C57.7932 77.317 57.2714 76.8591 56.7403 77.1888C56.2093 77.5186 56.3059 77.9551 56.1635 78.3829C56.0212 78.8107 55.5345 79.2375 55.1704 78.9739C55.4305 78.2839 55.711 77.5818 55.9914 76.8797C56.0478 76.7577 56.081 76.6263 56.0892 76.4922C56.1217 76.363 55.9235 76.1928 55.8143 76.0794C54.7222 74.9453 53.1605 73.6927 51.75 74.436C50.9555 74.8539 50.4034 75.8138 49.4839 75.8394C49.4775 74.567 50.8719 73.8196 52.0795 73.4028C51.3616 71.1266 47.8018 70.7611 47.084 68.4849C48.1484 68.6283 49.1733 68.9836 50.0979 69.5295C51.0226 70.0754 51.8281 70.8009 52.4666 71.6629C52.3514 70.071 52.2523 68.4832 52.1735 66.8834C52.7034 67.477 53.1089 68.1703 53.3659 68.9224C53.623 69.6745 53.7264 70.4702 53.6701 71.2623C53.6251 71.6165 53.6578 71.9763 53.7659 72.3169C53.9052 72.53 54.0788 72.7188 54.2795 72.8758L56.63 74.8941C56.3805 73.5597 56.2953 72.2002 56.3764 70.8458C57.5541 71.5035 57.1426 73.2716 57.5378 74.5735C58.0661 75.7118 58.8607 76.7073 59.8547 77.4763C60.514 78.1406 63.0294 81.0076 61.8817 82.0062L61.8614 82.0869ZM75.0834 45.4414C75.0042 44.1849 75.4071 42.7237 75.4089 41.4189C75.4096 40.9382 75.4467 37.5129 74.9488 37.3014C73.9495 36.888 73.0429 36.2798 72.282 35.5125L74.8896 36.1702C75.256 34.584 75.0018 32.9173 74.1789 31.5099C73.356 30.1024 72.0262 29.0603 70.4607 28.5958C71.6977 28.4634 72.9459 28.7182 74.0322 29.3249C74.0508 28.2125 73.8269 27.109 73.3758 26.0908C72.9247 25.0726 72.2572 24.164 71.4197 23.4279C69.7771 22.0862 67.4617 21.0214 67.2174 18.9848C69.5116 19.7221 71.5884 21.0129 73.2635 22.7424C72.582 20.5955 71.9126 18.4001 71.2472 16.2573C70.9932 15.6398 70.9075 14.9664 70.9988 14.3056C71.8572 14.5221 72.3095 15.4605 72.6 16.2894C73.4177 18.6858 74.048 21.1415 74.4855 23.6345C76.0193 22.2359 77.143 20.4478 77.737 18.4609C78.439 20.4584 76.9578 22.5063 75.627 24.1628C75.3523 24.4308 75.1498 24.7637 75.0384 25.1306C75.005 25.3902 75.0143 25.6536 75.0657 25.9103L75.5554 29.0908C76.393 28.9066 77.1788 28.5392 77.8561 28.0151C78.5335 27.4909 79.0855 26.8232 79.4723 26.0601C79.6643 27.8259 77.1841 28.7803 76.4366 30.4465C76.15 31.2761 76.0682 32.1627 76.1981 33.0311C76.3414 34.8533 77.2264 45.2091 75.0834 45.4414ZM80.6556 58.1128C83.1853 54.6153 86.0462 51.3687 89.199 48.4177C89.872 47.8472 90.4535 47.1772 90.9231 46.4311C91.3213 45.6476 91.597 44.8079 91.7407 43.941C92.1241 41.9425 92.5359 39.9684 92.9153 37.986C94.1704 38.4056 94.484 40.0991 94.3851 41.3106C94.0434 42.5818 94.0444 43.9209 94.3879 45.1926C95.2001 43.8436 96.2262 42.6351 97.4265 41.614C98.0885 41.0774 98.6957 40.477 99.2395 39.8216C99.8326 38.9599 100.307 38.0223 100.649 37.0342C101.344 35.3686 102.228 33.788 103.284 32.3235C103.511 31.9686 103.933 31.5942 104.301 31.7729C103.979 34.6962 103.089 37.5282 101.682 40.1112C102.92 37.796 105.732 36.8223 107.323 34.7504C107.86 33.9719 108.347 33.1596 108.78 32.3187C109.638 30.8108 110.715 29.4388 111.978 28.2478C112.614 30.5036 111.234 32.7659 109.919 34.7012L116.765 31.1212C116.913 31.2937 116.994 31.5132 116.994 31.7399C116.993 31.9666 116.912 32.1856 116.764 32.3573C116.462 32.6926 116.084 32.9506 115.661 33.1096L108.937 36.2051L113.428 39.5705C114.108 40.0855 114.816 40.8994 114.442 41.6295C111.963 40.4749 109.655 38.9854 107.583 37.2031C105.728 39.1555 103.5 40.7189 101.031 41.8019L109.68 44.1206C110.279 44.2718 110.959 44.4433 111.157 45.0942C108.839 45.5745 106.43 45.3784 104.219 44.5294C102.296 43.9585 100.426 43.315 98.5714 42.6069C97.0328 44.1066 95.3637 45.4672 93.5839 46.6728L96.3776 47.4805C96.5784 47.5056 96.7708 47.5765 96.94 47.6877C97.1091 47.7988 97.2503 47.9473 97.3528 48.1215C97.6475 48.8656 96.5167 49.3875 95.7677 49.1471C95.0187 48.9067 94.2499 48.3349 93.5085 48.4742C93.1198 48.5682 92.7597 48.7542 92.4587 49.0166C89.1452 51.4176 86.0804 54.1424 83.3099 57.1507C80.7139 59.9307 78.8054 63.3993 76.2822 66.232C76.1888 63.4606 79.0609 60.2007 80.5908 58.0964L80.6556 58.1128ZM115.847 83.2524C114.611 82.9661 113.49 82.3122 112.634 81.3771C111.395 80.2274 109.911 79.372 108.294 78.8749C106.677 78.3779 104.969 78.2521 103.298 78.5071C105.059 79.4447 106.748 80.5135 108.348 81.7044C108.724 81.9882 109.117 82.5508 108.764 82.8568C106.056 82.1595 103.575 80.7764 101.56 78.8416C101.294 78.5504 100.956 78.3347 100.58 78.2167C100.286 78.1665 99.9836 78.1907 99.7012 78.287L96.0548 79.0846C96.3381 79.8239 96.7484 80.5085 97.2671 81.1078C96.1443 81.7348 95.1219 79.9828 93.8749 79.6683C93.4462 79.5707 93.0019 79.5639 92.5707 79.6485C89.2556 80.0569 85.9184 80.2648 82.5775 80.2708C85.9567 80.0781 89.3041 79.5172 92.5599 78.5982C93.3855 78.4308 94.1825 78.146 94.9265 77.7525C95.6405 77.29 96.2861 76.7303 96.8446 76.0895C97.9358 74.727 99.3201 73.6265 100.895 72.8693C99.8323 74.2155 98.7773 75.5981 97.7102 76.9605C100.035 77.1355 102.343 76.4598 104.202 75.0599C106.057 73.6671 108.174 72.6594 110.427 72.0962C109.279 73.9973 107.436 75.3794 105.286 75.9517C108.977 78.1878 113.994 76.3275 117.883 78.1845C115.813 78.5555 113.722 78.7965 111.621 78.9061C113.486 79.9091 115.502 81.2074 115.847 83.2524Z" fill="#2A8D43"/>
<path id="Vector_2" d="M67.1188 141.151C67.8481 136.691 67.772 132.135 66.8943 127.699C65.9786 121.972 63.9415 115.911 59.6087 112.122L58.488 111.239C57.4953 110.529 56.4271 109.931 55.3028 109.456C54.4567 109.123 53.6147 108.773 52.7443 108.468L52.2422 108.341C50.888 107.871 49.4952 107.519 48.0798 107.291C43.674 106.592 39.2011 107.525 34.7616 107.71C32.1629 107.665 29.5651 107.825 26.9923 108.189C22.3246 109.279 18.2764 112.157 15.7213 116.2C13.5753 119.473 12.1663 123.172 11.5912 127.043C11.2594 129.793 12.7662 132.697 13.4633 135.329C14.6277 140.804 17.4183 145.805 21.4715 149.68C21.8644 149.961 22.196 150.32 22.4462 150.733C22.7586 151.436 22.7979 152.229 22.5566 152.959C20.9878 159.793 14.0708 164.952 14.1706 171.933C14.9403 168.881 17.4587 166.614 19.9967 164.816C22.5347 163.017 25.3401 161.183 26.8992 158.416C27.0781 157.963 27.3803 157.57 27.7716 157.279C28.5053 156.829 29.5011 157.252 30.2095 157.585C34.1789 159.24 38.5438 159.709 42.7719 158.933C46.9757 158.132 51.0751 156.861 54.9931 155.146C56.8402 154.452 58.6068 153.562 60.2622 152.491C63.9177 149.726 66.3711 145.668 67.1188 141.151ZM20.6358 126.971C20.0737 126.331 19.3973 123.413 20.9673 124.496C21.4488 124.841 21.8846 126.05 22.2768 126.544C22.8189 127.229 23.4362 127.851 24.1172 128.399C23.4639 128.471 22.8027 128.377 22.1945 128.128C21.5862 127.879 21.0502 127.481 20.6358 126.971ZM29.3448 120.581C29.0297 120.422 28.7231 120.248 28.4261 120.057C28.0593 119.78 27.7231 119.465 27.4229 119.117C26.8326 118.458 26.3708 117.695 26.061 116.868C25.7874 116.215 25.7456 115.49 25.9423 114.811C27.1345 115.814 28.174 116.984 29.028 118.286C29.712 119.209 30.5559 120.004 31.5198 120.632C31.677 120.712 31.8129 120.829 31.9163 120.972C31.9647 121.043 31.9878 121.128 31.9818 121.214C31.9758 121.3 31.9411 121.381 31.8832 121.444C31.7089 121.589 31.4741 121.496 31.2919 121.398L29.3448 120.581ZM34.4201 132.286C33.0869 131.997 31.8562 131.354 30.8583 130.425C30.4094 129.952 28.901 128.214 30.1163 128.04C31.044 127.913 32.2525 129.815 32.8187 130.439C33.4316 130.987 34.0909 131.481 34.7892 131.915C34.8703 131.95 34.9343 132.015 34.9672 132.097C35.0602 132.207 34.6955 132.286 34.4364 132.221L34.4201 132.286ZM35.2451 121.434C34.8912 120.256 34.8386 119.008 35.0921 117.806C35.8812 118.458 36.4871 119.303 36.8506 120.259C37.7412 123.557 40.7436 125.792 43.5599 127.807C44.1051 128.121 44.5336 128.603 44.7812 129.18C43.7205 128.809 42.6841 128.411 41.6357 127.992C40.563 127.58 39.5416 127.046 38.592 126.4C37.0496 125.074 35.8935 123.358 35.2451 121.434ZM37.4083 141.884C36.7928 141.728 35.1048 141.045 35.6244 140.214C35.9897 139.654 37.2693 139.839 37.7429 140.079C38.8391 140.885 40.0453 141.531 41.3249 141.996C40.0454 141.673 38.7402 142.34 37.3921 141.88L37.4083 141.884ZM46.2321 137.429C45.5518 137.257 44.8148 137.174 44.1143 137.015C43.3549 136.863 42.6275 136.581 41.9647 136.181C41.3577 135.787 39.3146 134.052 39.3764 133.261C39.3863 132.546 39.4509 131.833 39.5697 131.129C41.3251 132.36 42.9784 133.731 44.5137 135.226C44.9628 135.563 47.54 137.707 48.1279 137.22C47.5404 137.529 46.8564 137.602 46.2159 137.425L46.2321 137.429ZM46.9641 126.399C46.6924 126.159 46.4482 125.89 46.2361 125.597C45.4437 124.573 44.7207 123.068 46.5348 123.388C47.2961 123.58 47.7728 124.49 48.2945 125.017L48.4482 125.159C49.0622 125.76 49.755 126.276 50.5078 126.692C51.2401 127.087 52.0004 127.428 52.7827 127.712L54.8473 128.542C53.4725 128.943 52.0067 128.915 50.6471 128.461C49.3014 127.996 48.0489 127.296 46.9479 126.395L46.9641 126.399ZM50.9302 131.778C51.4883 131.943 52.0045 132.226 52.4439 132.607C53.1357 133.126 53.8632 133.597 54.621 134.015C56.5101 134.8 58.4547 135.446 60.4388 135.946C60.5522 135.974 60.6655 136.003 60.6856 136.128C60.7057 136.253 60.4381 136.426 60.2356 136.41C58.4357 136.292 56.6503 136.009 54.9024 135.563C53.8691 135.371 52.8855 134.971 52.0121 134.387C51.5792 133.986 50.2865 131.53 50.914 131.774L50.9302 131.778ZM53.3532 145.871C53.0537 145.792 52.772 145.657 52.5234 145.473C52.0217 145.071 51.3518 143.288 51.7496 142.667C52.1474 142.046 52.9481 142.97 53.4457 143.387C54.542 144.368 57.6253 146.622 59.2421 146.154C57.2923 146.671 55.2288 146.571 53.337 145.867L53.3532 145.871Z" fill="#B04E98"/>
</g>
</g>
</svg>
