<svg width="349" height="27" viewBox="0 0 349 27" fill="none" xmlns="http://www.w3.org/2000/svg">
<path d="M1.68355 5.39308H5.60622L9.59624 15.7977C10.0508 17.029 10.6232 18.8498 10.6232 18.8498C10.6232 18.8498 11.1619 17.1157 11.6165 15.7977L15.6065 5.39308H19.546L21.2296 26.3411H17.5931L16.7345 14.6359C16.7345 13.2486 16.7345 11.3931 16.7345 11.3931C16.7345 11.3931 16.1284 13.422 15.6402 14.6359L12.2731 22.7515H9.02383L5.75774 14.6359C5.26951 13.422 4.6466 11.3584 4.6466 11.3584C4.6466 11.3584 4.6466 13.2486 4.6466 14.6359L3.77115 26.3411H0L1.68355 5.39308Z" fill="#00554B"/>
<path d="M35.8933 20.9827H28.755L27.0715 26.3411H23.233L30.3881 5.39308H34.2603L41.4153 26.3411H37.6105L35.8933 20.9827ZM32.3073 9.03471C32.3073 9.03471 31.8528 11.0983 31.4487 12.2775L29.6473 17.8787H34.9842L33.1828 12.2775C32.7956 11.0983 32.3747 9.03471 32.3747 9.03471H32.3073Z" fill="#00554B"/>
<path d="M44.0417 5.39309H50.5907C51.9797 5.28194 53.3756 5.48311 54.6817 5.98269C55.7355 6.47856 56.6201 7.28946 57.2206 8.31001C57.8211 9.33055 58.1097 10.5135 58.0488 11.7052C58.0972 12.8969 57.8037 14.0769 57.2048 15.0977C56.606 16.1186 55.7284 16.935 54.6817 17.4452C54.9475 17.7554 55.1737 18.0992 55.3551 18.4683L59.5472 26.2891H55.3215L51.281 18.4683H47.7287V26.2891H44.0417V5.39309ZM51.0453 15.2255C51.4772 15.2653 51.9124 15.207 52.3202 15.0547C52.7279 14.9023 53.0981 14.6596 53.4048 14.3437C53.7115 14.0279 53.9471 13.6465 54.095 13.2265C54.2429 12.8066 54.2995 12.3583 54.2608 11.9133C54.2608 9.91911 53.4359 8.67056 50.5065 8.67056H47.7287V15.2255H51.0453Z" fill="#00554B"/>
<path d="M72.9987 20.9827H65.8605L64.1769 26.3411H60.3384L67.4935 5.39308H71.3657L78.5208 26.3411H74.716L72.9987 20.9827ZM69.4128 9.03471C69.4128 9.03471 69.0256 11.0983 68.5542 12.2775L66.7528 17.8787H72.0728L70.2714 12.2775C69.901 11.0983 69.4801 9.03471 69.4801 9.03471H69.4128Z" fill="#00554B"/>
<path d="M81.164 0H84.8004L87.5446 4.00579H84.4637L83.0159 1.63006L81.5848 4.00579H78.5208L81.164 0ZM81.164 5.39308H84.8678V26.3411H81.164V5.39308Z" fill="#00554B"/>
<path d="M99.0433 5.04626C101.809 4.9445 104.502 5.97298 106.535 7.90754L104.767 10.7341C103.212 9.37146 101.253 8.59476 99.2116 8.53182C98.3015 8.5162 97.398 8.69369 96.5574 9.05324C95.7167 9.41279 94.9569 9.9467 94.3252 10.6218C93.6936 11.2968 93.2035 12.0985 92.8856 12.9771C92.5677 13.8556 92.4288 14.7921 92.4774 15.7284C92.4224 16.6905 92.5588 17.654 92.8782 18.5598C93.1976 19.4657 93.6933 20.2948 94.3349 20.9962C94.9765 21.6977 95.7505 22.2568 96.6093 22.6391C97.4682 23.0215 98.3938 23.219 99.3295 23.2197C101.549 23.1373 103.656 22.1889 105.222 20.5665L107.175 23.3064C106.141 24.4147 104.899 25.294 103.524 25.8904C102.149 26.4868 100.67 26.7877 99.178 26.7747C97.7789 26.8161 96.3864 26.561 95.0869 26.0253C93.7875 25.4896 92.6087 24.6846 91.6237 23.6603C90.6388 22.636 89.8686 21.4142 89.3609 20.0706C88.8533 18.7271 88.619 17.2904 88.6726 15.8498C88.6361 14.4311 88.8786 13.0194 89.3853 11.6997C89.8921 10.3799 90.6527 9.1794 91.6214 8.17022C92.5902 7.16104 93.7471 6.36407 95.0225 5.82721C96.2979 5.29036 97.6656 5.02472 99.0433 5.04626Z" fill="#00554B"/>
<path d="M110.491 5.39308H114.195V14.2717H123.505V5.39308H127.192V26.3411H123.505V17.5492H114.195V26.3411H110.491V5.39308Z" fill="#00554B"/>
<path d="M132.361 5.39308H144.533V8.67055H136.115V14.1677H142.967V17.4451H136.048V23.0637H144.987V26.3411H132.361V5.39308Z" fill="#00554B"/>
<path d="M148.826 5.39308H155.392C156.781 5.28359 158.176 5.48472 159.483 5.98268C160.537 6.47855 161.421 7.28945 162.022 8.31C162.622 9.33055 162.911 10.5135 162.85 11.7052C162.898 12.8969 162.605 14.0769 162.006 15.0977C161.407 16.1185 160.529 16.935 159.483 17.4451C159.752 17.7565 159.984 18.1 160.173 18.4683L164.365 26.2891H160.122L156.082 18.4683H152.53V26.2891H148.826V5.39308ZM155.846 15.2255C156.278 15.2653 156.713 15.207 157.121 15.0547C157.529 14.9023 157.899 14.6596 158.206 14.3437C158.512 14.0278 158.748 13.6465 158.896 13.2265C159.044 12.8066 159.101 12.3583 159.062 11.9133C159.062 9.91911 158.254 8.67055 155.324 8.67055H152.53V15.2255H155.846Z" fill="#00554B"/>
<path d="M174.786 14.4625H183.406V17.7399H174.786V14.4625Z" fill="#00554B"/>
<path d="M195.662 5.39308H199.366V23.0637H208.154V26.3411H195.662V5.39308Z" fill="#00554B"/>
<path d="M221.875 20.9827H214.754L213.07 26.3411H209.248L216.42 5.39308H220.276L227.448 26.3411H223.626L221.875 20.9827ZM218.306 9.03471C218.306 9.03471 217.835 11.0983 217.447 12.2775L215.629 17.8787H220.966L219.165 12.2775C218.794 11.0983 218.356 9.03471 218.356 9.03471H218.306Z" fill="#00554B"/>
<path d="M230.023 5.39308H233.71L241.421 17.5318C242.043 18.578 242.605 19.6608 243.105 20.7746C243.105 20.7746 242.903 18.7631 242.903 17.5318V5.39308H246.573V26.3411H242.903L235.192 14.2024C234.566 13.1583 234.004 12.0753 233.508 10.9596C233.508 10.9596 233.71 12.9711 233.71 14.2024V26.3411H230.023V5.39308Z" fill="#00554B"/>
<path d="M260.95 5.04626C263.703 4.93185 266.398 5.87777 268.509 7.69945L266.674 10.526C265.142 9.25456 263.238 8.55203 261.27 8.53182C260.332 8.46043 259.39 8.59705 258.507 8.93249C257.624 9.26793 256.821 9.79439 256.153 10.4764C255.484 11.1584 254.966 11.98 254.632 12.886C254.297 13.792 254.156 14.7612 254.216 15.7284C254.141 16.6922 254.262 17.6616 254.572 18.5743C254.882 19.487 255.374 20.3229 256.016 21.0283C256.658 21.7337 257.436 22.293 258.3 22.6704C259.165 23.0478 260.096 23.2349 261.035 23.2197C262.923 23.1641 264.724 22.3851 266.085 21.0347V18.5897H262.971V15.3122H269.419V26.3411H266.27V25.3527C266.27 24.9018 266.27 24.4509 266.27 24.4509C264.653 25.9411 262.548 26.7463 260.378 26.7053C259.024 26.6903 257.686 26.395 256.445 25.8369C255.204 25.2788 254.084 24.4694 253.153 23.4566C252.222 22.4439 251.497 21.2486 251.023 19.9418C250.55 18.635 250.336 17.2434 250.394 15.8498C250.364 14.4166 250.617 12.9921 251.138 11.6627C251.658 10.3333 252.436 9.12681 253.423 8.11643C254.41 7.10605 255.587 6.31289 256.881 5.78512C258.175 5.25735 259.559 5.00597 260.95 5.04626Z" fill="#00554B"/>
<path d="M282.668 5.04626C284.046 5.01126 285.417 5.26248 286.699 5.78494C287.981 6.3074 289.148 7.09039 290.13 8.08724C291.112 9.08409 291.889 10.2744 292.415 11.5872C292.941 12.9 293.204 14.3083 293.19 15.7284C293.247 17.187 293.017 18.6424 292.514 20.0072C292.011 21.372 291.246 22.6181 290.264 23.6708C289.282 24.7234 288.104 25.5609 286.8 26.133C285.496 26.7051 284.094 27 282.677 27C281.259 27 279.857 26.7051 278.553 26.133C277.249 25.5609 276.071 24.7234 275.089 23.6708C274.107 22.6181 273.342 21.372 272.839 20.0072C272.336 18.6424 272.106 17.187 272.163 15.7284C272.149 14.3098 272.412 12.9029 272.937 11.5913C273.462 10.2797 274.237 9.09021 275.217 8.0936C276.197 7.09699 277.362 6.31362 278.642 5.79011C279.922 5.26659 281.291 5.01363 282.668 5.04626ZM282.668 23.2197C283.592 23.1979 284.503 22.985 285.346 22.5938C286.189 22.2026 286.947 21.6409 287.575 20.9422C288.203 20.2435 288.688 19.422 289.002 18.5263C289.316 17.6307 289.452 16.6792 289.402 15.7284C289.402 13.8887 288.693 12.1244 287.43 10.8236C286.167 9.52274 284.454 8.79193 282.668 8.79193C280.882 8.79193 279.169 9.52274 277.906 10.8236C276.643 12.1244 275.934 13.8887 275.934 15.7284C275.882 16.6798 276.016 17.6323 276.329 18.529C276.642 19.4257 277.128 20.2482 277.756 20.9474C278.385 21.6466 279.144 22.2082 279.988 22.5986C280.831 22.989 281.743 23.2003 282.668 23.2197Z" fill="#00554B"/>
<path d="M296.658 5.39308H300.345V18.8151C300.345 20.0477 300.821 21.2297 301.667 22.1013C302.513 22.9729 303.661 23.4625 304.857 23.4625C306.054 23.4625 307.202 22.9729 308.048 22.1013C308.894 21.2297 309.369 20.0477 309.369 18.8151V5.39308H313.14V18.8151C313.14 23.5145 309.773 26.7053 304.941 26.7053C300.11 26.7053 296.726 23.5145 296.726 18.8151L296.658 5.39308Z" fill="#00554B"/>
<path d="M317.939 5.39308H330.111V8.67055H321.693V14.1677H328.528V17.4451H321.693V23.0637H330.632V26.3411H317.989L317.939 5.39308Z" fill="#00554B"/>
<path d="M338.629 8.67055H331.895V5.39308H349V8.67055H342.266V26.3411H338.579L338.629 8.67055Z" fill="#00554B"/>
</svg>
