<svg width="25" height="25" viewBox="0 0 25 25" fill="none" xmlns="http://www.w3.org/2000/svg">
<path d="M5.70918 2.07577C5.31786 1.57265 4.57414 1.52634 4.12344 1.97704L2.50794 3.59255C1.75251 4.34798 1.4748 5.41821 1.80485 6.35698C3.13028 10.1269 5.30024 13.6667 8.31675 16.6833C11.3333 19.6998 14.8731 21.8697 18.643 23.1952C19.5818 23.5252 20.652 23.2475 21.4075 22.4921L23.023 20.8766C23.4737 20.4259 23.4274 19.6821 22.9242 19.2908L19.3208 16.4882C19.0638 16.2883 18.7291 16.2176 18.4132 16.2966L14.9928 17.1517C14.0638 17.384 13.081 17.1117 12.4038 16.4346L8.56542 12.5962C7.88827 11.919 7.61605 10.9362 7.84831 10.0072L8.70342 6.58676C8.78239 6.27087 8.71175 5.93621 8.51184 5.67919L5.70918 2.07577ZM2.94496 0.798556C4.10451 -0.360998 6.01796 -0.241871 7.02474 1.05255L9.8274 4.65598C10.3417 5.31725 10.5235 6.17826 10.3203 6.99098L9.46518 10.4114C9.37491 10.7725 9.48071 11.1545 9.74391 11.4177L13.5823 15.2561C13.8455 15.5193 14.2275 15.6251 14.5886 15.5348L18.009 14.6797C18.8217 14.4765 19.6828 14.6583 20.344 15.1726L23.9474 17.9753C25.2419 18.982 25.361 20.8955 24.2014 22.055L22.5859 23.6705C21.4301 24.8264 19.7014 25.3339 18.0902 24.7674C14.0899 23.361 10.335 21.0584 7.13827 17.8617C3.94156 14.665 1.63898 10.9101 0.232559 6.90976C-0.333879 5.29863 0.173641 3.56987 1.32945 2.41406L2.94496 0.798556Z" fill="#FFEED6"/>
</svg>
